<?xml version="1.0" encoding="utf-8"?>
<!-- Generator: Adobe Illustrator 24.1.1, SVG Export Plug-In . SVG Version: 6.00 Build 0)  -->
<svg version="1.1" id="圖層_1" xmlns="http://www.w3.org/2000/svg" xmlns:xlink="http://www.w3.org/1999/xlink" x="0px" y="0px"
	 viewBox="0 0 800 800" style="enable-background:new 0 0 800 800;" xml:space="preserve">
<style type="text/css">
	.st0{fill:none;}
	.st1{fill:#FFFFFF;}
</style>
<g>
	<path class="st0" d="M622.2,309.1h-37c-15.3,0-27.8,12.2-27.8,27.3c0,15.1,12.4,27.3,27.8,27.3h37c15.3,0,27.8-12.2,27.8-27.3
		C650,321.3,637.6,309.1,622.2,309.1z"/>
	<path class="st1" d="M400,363.6c-46,0-83.3,36.6-83.3,81.8s37.3,81.8,83.3,81.8c46,0,83.3-36.6,83.3-81.8S446,363.6,400,363.6z"/>
	<path class="st1" d="M708.4,255.6c-10.8-15.9-24.7-29.5-40.9-40.1c-24-15.8-54.1-21.4-100.1-23.4c-22,0-40.9-16.3-45.2-37.5
		c-6.5-31.7-34.8-54.5-67.8-54.5H345.5c-32.9,0-61.3,22.8-67.8,54.5c-4.3,21.1-23.2,37.5-45.2,37.5c-46,2-76.1,7.6-100.1,23.4
		c-16.2,10.6-30.1,24.2-40.9,40.1c-25,36.7-25,87.8-25,189.9c0,102.1,0,153.2,25,189.9c10.8,15.9,24.7,29.5,40.9,40.1
		C169.9,700,221.9,700,325.9,700h148.1c104,0,156.1,0,193.4-24.5c16.2-10.6,30.1-24.3,40.9-40.1c25-36.7,25-87.8,25-189.9
		C733.3,343.3,733.3,292.2,708.4,255.6z M400,581.8c-76.7,0-138.9-61-138.9-136.4c0-75.3,62.2-136.4,138.9-136.4
		c76.7,0,138.9,61.1,138.9,136.4C538.9,520.8,476.7,581.8,400,581.8z M622.2,363.6h-37c-15.3,0-27.8-12.2-27.8-27.3
		c0-15.1,12.4-27.3,27.8-27.3h37c15.3,0,27.8,12.2,27.8,27.3C650,351.4,637.6,363.6,622.2,363.6z"/>
</g>
</svg>
