<?xml version="1.0" encoding="utf-8"?>
<!-- Generator: Adobe Illustrator 24.1.1, SVG Export Plug-In . SVG Version: 6.00 Build 0)  -->
<svg version="1.1" id="圖層_1" xmlns="http://www.w3.org/2000/svg" xmlns:xlink="http://www.w3.org/1999/xlink" x="0px" y="0px"
	 viewBox="0 0 16 16" style="enable-background:new 0 0 16 16;" xml:space="preserve">
<style type="text/css">
	.st0{fill:#CCCCCC;}
</style>
<g transform="translate(-448 -544)">
	<g>
		<path class="st0" d="M458.7,546.3c2.3,2.3,2.3,6.1,0,8.5s-6.1,2.3-8.5,0s-2.3-6.1,0-8.5C452.6,543.9,456.4,543.9,458.7,546.3
			L458.7,546.3z M457.7,547.3c-1.8-1.8-4.6-1.8-6.4,0c-1.8,1.8-1.8,4.6,0,6.4c1.8,1.7,4.6,1.7,6.4-0.1
			C459.4,551.9,459.4,549.1,457.7,547.3L457.7,547.3z"/>
		<path class="st0" d="M458.4,552.8c-0.1,0.1-0.1,0.3-0.2,0.4c-0.2,0.4-0.2,0.8-0.2,1.3c0.1,0.4,0.2,0.8,0.5,1.1
			c0.3,0.3,0.8,0.3,1.1,0c0.3-0.3,0.3-0.7,0.1-1l-0.1-0.1c-0.1-0.1-0.1-0.1-0.1-0.2c0-0.2,0-0.4,0.1-0.6c0-0.1,0.1-0.1,0.1-0.2l0,0
			c0.2-0.4,0.1-0.8-0.3-1C459.1,552.3,458.6,552.4,458.4,552.8L458.4,552.8L458.4,552.8z"/>
		<path class="st0" d="M457.6,555.7c0,0,0.1,0,0.1-0.1c0.2-0.1,0.4-0.1,0.6-0.1c0.1,0,0.1,0,0.2,0.1l0,0c0.3,0.3,0.8,0.3,1.1,0
			c0.3-0.3,0.3-0.7,0-1c-0.3-0.3-0.7-0.5-1.1-0.5c-0.4-0.1-0.9,0-1.3,0.2c-0.2,0.1-0.3,0.1-0.4,0.2c-0.4,0.2-0.5,0.7-0.3,1
			c0.2,0.3,0.6,0.4,0.9,0.3l0.1,0L457.6,555.7L457.6,555.7z"/>
		<path class="st0" d="M461.5,559.1L461.5,559.1l-3.6-4.2c-0.6-0.7,0.4-1.7,1.1-1.1l4.2,3.6l0,0c0.1,0.1,0.1,0.1,0.2,0.2
			c0.2,0.4,0.2,1-0.2,1.4l-0.1,0.1c-0.5,0.4-1,0.4-1.4,0.2C461.6,559.3,461.5,559.2,461.5,559.1L461.5,559.1z M462.5,558
			 M462.1,558.5"/>
	</g>
</g>
</svg>
