<?xml version="1.0" encoding="utf-8"?>
<!-- Generator: Adobe Illustrator 24.1.1, SVG Export Plug-In . SVG Version: 6.00 Build 0)  -->
<svg version="1.1" id="圖層_1" xmlns="http://www.w3.org/2000/svg" xmlns:xlink="http://www.w3.org/1999/xlink" x="0px" y="0px"
	 viewBox="0 0 28 28" style="enable-background:new 0 0 28 28;" xml:space="preserve">
<style type="text/css">
	.st0{fill:#9999CC;}
	.st1{fill:#AC9FF6;}
	.st2{fill-rule:evenodd;clip-rule:evenodd;fill:#9999CC;}
</style>
<g transform="translate(-444 -204)">
	<g>
		<path class="st0" d="M451,216v4.7c0,0.5,0.4,0.9,0.9,0.9s0.9-0.4,0.9-0.9V216c0-0.5-0.4-0.9-0.9-0.9S451,215.5,451,216z"/>
		<path class="st0" d="M449.5,219.2h4.7c0.5,0,0.9-0.4,0.9-0.9s-0.4-0.9-0.9-0.9h-4.7c-0.5,0-0.9,0.4-0.9,0.9
			S449.1,219.2,449.5,219.2z"/>
		<path class="st1" d="M463.8,226.2h-11.7c-4.5,0-8.2-3.7-8.2-8.2c0-4.5,3.7-8.2,8.2-8.2h11.7c4.5,0,8.2,3.7,8.2,8.2
			C472,222.5,468.3,226.2,463.8,226.2z M463.8,224.4c3.5,0,6.4-2.9,6.4-6.4c0-3.5-2.9-6.4-6.4-6.4l0,0h-11.7c-3.5,0-6.4,2.9-6.4,6.4
			c0,3.5,2.9,6.4,6.4,6.4H463.8z"/>
		<path class="st2" d="M463.3,220c0,0.8-0.7,1.5-1.5,1.5c-0.8,0-1.5-0.7-1.5-1.5s0.7-1.5,1.5-1.5C462.6,218.6,463.3,219.2,463.3,220
			 M466.8,216.5c0,0.8-0.7,1.5-1.5,1.5c-0.8,0-1.5-0.7-1.5-1.5c0-0.8,0.7-1.5,1.5-1.5C466.1,215.1,466.8,215.7,466.8,216.5"/>
	</g>
</g>
</svg>
