<?xml version="1.0" encoding="utf-8"?>
<!-- Generator: Adobe Illustrator 24.1.1, SVG Export Plug-In . SVG Version: 6.00 Build 0)  -->
<svg version="1.1" id="圖層_1" xmlns="http://www.w3.org/2000/svg" xmlns:xlink="http://www.w3.org/1999/xlink" x="0px" y="0px"
	 viewBox="0 0 20 20" style="enable-background:new 0 0 20 20;" xml:space="preserve">
<style type="text/css">
	.st0{fill:#FFFFFF;}
</style>
<path class="st0" d="M5.6,16.8c1,0,2.6-0.1,4.7-0.5C10,17.3,9,18,7.8,18C6.9,18,6.1,17.5,5.6,16.8L5.6,16.8z M17.8,11.2
	c0.2,0.9-0.5,1.7-1.9,2.4c-0.8,0.4-2.5,1.1-5.4,1.6c-2.2,0.4-3.9,0.5-4.9,0.5c-0.3,0-0.6,0-0.8,0c-1.6-0.1-2.5-0.6-2.7-1.5
	c-0.3-1.4,0.2-1.9,0.9-2.8l0.2-0.2c0.5-0.6,0.7-1.2,0.4-2.7C2.9,5,4.5,2.6,7.9,2c3.4-0.7,5.8,1,6.4,4.4c0.3,1.6,0.7,2,1.4,2.4v0
	L16,9C16.9,9.5,17.5,9.9,17.8,11.2z"/>
</svg>
