<?xml version="1.0" encoding="utf-8"?>
<!-- Generator: Adobe Illustrator 24.1.1, SVG Export Plug-In . SVG Version: 6.00 Build 0)  -->
<svg version="1.1" id="圖層_1" xmlns="http://www.w3.org/2000/svg" xmlns:xlink="http://www.w3.org/1999/xlink" x="0px" y="0px"
	 viewBox="0 0 28 28" style="enable-background:new 0 0 28 28;" xml:space="preserve">
<style type="text/css">
	.st0{fill:#AC9FF6;}
</style>
<path class="st0" d="M17.5,23.7h4.3c0.4,0,0.8-0.3,0.8-0.8v-9h0c-0.2-0.1-0.3-0.2-0.5-0.3l-0.4-0.3c-0.1-0.1-0.2-0.1-0.3,0l-0.2,0.1
	c-0.6,0.5-1.3,0.8-2.1,0.8h-0.2c-0.8,0-1.5-0.3-2.1-0.7l-0.2-0.2c-0.1-0.1-0.2-0.1-0.3,0l-0.2,0.2c-0.6,0.5-1.3,0.7-2.1,0.7h-0.1
	c-0.7,0-1.5-0.3-2-0.7l-0.2-0.2c-0.1-0.1-0.2-0.1-0.3,0l-0.2,0.1c-0.6,0.5-1.3,0.8-2.1,0.8H8.9c-0.8,0-1.5-0.3-2.1-0.7l-0.2-0.2
	c-0.1-0.1-0.2-0.1-0.3,0l-0.5,0.4c-0.1,0.1-0.3,0.2-0.4,0.3h0v9c0,0.4,0.3,0.8,0.8,0.8h4.3v-6.3c0-0.7,0.6-1.3,1.3-1.3h4.5
	c0.7,0,1.3,0.6,1.3,1.3V23.7z M3.7,8.7h20.7c0-0.1-0.1-0.2-0.1-0.3l-1.2-3.1c-0.3-0.7-0.9-1.1-1.6-1.1H6.5c-0.7,0-1.4,0.4-1.6,1.1
	L3.8,8.5C3.7,8.6,3.7,8.7,3.7,8.7z M24.5,10.2h-21V12c0,0.4,0.3,0.8,0.8,0.8h0.2c0.2,0,0.3-0.1,0.5-0.2l0.5-0.4
	c0.6-0.5,1.6-0.5,2.2,0l0.2,0.2c0.3,0.3,0.7,0.4,1.1,0.4h0.2c0.4,0,0.8-0.1,1.1-0.4l0.2-0.1c0.6-0.5,1.6-0.5,2.2,0l0.2,0.2
	c0.3,0.3,0.7,0.4,1.1,0.4H14c0.4,0,0.8-0.1,1.1-0.4l0.2-0.2c0.6-0.5,1.6-0.5,2.2,0l0.2,0.2c0.3,0.3,0.7,0.4,1.1,0.4h0.2
	c0.4,0,0.8-0.1,1.1-0.4l0.2-0.1c0.6-0.5,1.6-0.5,2.2,0l0.4,0.3c0.2,0.1,0.4,0.2,0.6,0.2c0.5,0,0.9-0.4,0.9-0.9V10.2z M24,14.2V23
	c0,1.2-1,2.3-2.3,2.3H6.3C5,25.2,4,24.2,4,23v-8.8c-1.1-0.1-2-1.1-2-2.2v-2c0-0.7,0.1-1.4,0.4-2l1.2-3.2c0.5-1.2,1.7-2.1,3-2.1h14.9
	c1.3,0,2.5,0.8,3,2.1L25.6,8c0.2,0.6,0.4,1.3,0.4,2v1.9C26,13,25.1,14,24,14.2z M16,23.7v-6h-4v6H16z"/>
</svg>
