<?xml version="1.0" encoding="utf-8"?>
<!-- Generator: Adobe Illustrator 24.1.1, SVG Export Plug-In . SVG Version: 6.00 Build 0)  -->
<svg version="1.1" id="圖層_1" xmlns="http://www.w3.org/2000/svg" xmlns:xlink="http://www.w3.org/1999/xlink" x="0px" y="0px"
	 viewBox="0 0 28 28" style="enable-background:new 0 0 28 28;" xml:space="preserve">
<style type="text/css">
	.st0{fill:#AC9FF6;}
</style>
<path class="st0" d="M25.5,14c0-6.4-5.1-11.5-11.5-11.5S2.5,7.6,2.5,14S7.6,25.5,14,25.5S25.5,20.4,25.5,14z M27,14
	c0,7.2-5.8,13-13,13S1,21.2,1,14S6.8,1,14,1S27,6.8,27,14z M7.5,14h0.2c0.3,0,0.5,0.3,0.3,0.6c-0.6,0.9-1,2-1,3.1v0.5
	c0,0.1,0,0.2,0,0.4C7,18.8,6.9,19,6.6,19H6.1c-0.9,0-1.6-0.8-1.6-1.7C4.5,15.5,5.7,14,7.5,14z M20.5,14c1.8,0,3,1.5,3,3.3
	c0,0.9-0.7,1.7-1.6,1.7h-0.5c-0.2,0-0.4-0.2-0.4-0.4c0-0.1,0-0.2,0-0.4v-0.5c0-1.2-0.4-2.2-1-3.1c-0.2-0.3,0-0.6,0.3-0.6H20.5z
	 M8.3,13c-1.1,0-2-1-2-2.3c0-1.4,0.8-2.3,2-2.3s2,0.9,2,2.3C10.3,12,9.4,13,8.3,13z M19.8,13c-1.1,0-2-1-2-2.3c0-1.4,0.8-2.3,2-2.3
	s2,0.9,2,2.3C21.8,12,20.9,13,19.8,13z M15.2,13.5c2.4,0,4.3,1.9,4.3,4.2v0.5c0,1-0.8,1.8-1.8,1.8h-7.4c-1,0-1.8-0.8-1.8-1.8v-0.5
	c0-2.3,1.9-4.2,4.3-4.2H15.2z M16.8,9c0,1.7-1.2,3-2.8,3c-1.5,0-2.8-1.3-2.8-3c0-1.8,1.1-3,2.8-3C15.7,6,16.8,7.1,16.8,9z"/>
</svg>
