<?xml version="1.0" encoding="utf-8"?>
<!-- Generator: Adobe Illustrator 24.1.1, SVG Export Plug-In . SVG Version: 6.00 Build 0)  -->
<svg version="1.1" id="圖層_1" xmlns="http://www.w3.org/2000/svg" xmlns:xlink="http://www.w3.org/1999/xlink" x="0px" y="0px"
	 viewBox="0 0 40 40" style="enable-background:new 0 0 40 40;" xml:space="preserve">
<style type="text/css">
	.st0{fill:#AC9FF6;}
	.st1{fill:#FFFFFF;}
</style>
<path class="st0" d="M22.4,39.9C32.3,38.7,40,30.2,40,20C40,9,31,0,20,0S0,9,0,20c0,9.4,6.5,17.3,15.2,19.4l0.4-1.6h6.1L22.4,39.9z"
	/>
<path class="st1" d="M15.2,39.4V26.1H11V20h4.1v-2.6c0-6.8,3.1-10,9.8-10c1.3,0,3.4,0.2,4.3,0.5v5.5c-0.5,0-1.3-0.1-2.3-0.1
	c-3.3,0-4.5,1.2-4.5,4.5V20H29l-1.1,6.1h-5.4v13.7C20,40.1,17.5,40,15.2,39.4L15.2,39.4z"/>
</svg>
