<?xml version="1.0" encoding="utf-8"?>
<!-- Generator: Adobe Illustrator 24.1.1, SVG Export Plug-In . SVG Version: 6.00 Build 0)  -->
<svg version="1.1" id="圖層_1" xmlns="http://www.w3.org/2000/svg" xmlns:xlink="http://www.w3.org/1999/xlink" x="0px" y="0px"
	 viewBox="0 0 28 28" style="enable-background:new 0 0 28 28;" xml:space="preserve">
<style type="text/css">
	.st0{fill:#AC9FF6;}
</style>
<path class="st0" d="M17.5,24h3.8c0.1,0,0.3-0.1,0.3-0.3V14c0-0.6,0.4-1,1-1h1.8L14,4L3.7,13h1.8c0.6,0,1,0.4,1,1v9.7
	c0,0.1,0.1,0.3,0.3,0.3h3.8v-6.3c0-0.7,0.6-1.3,1.3-1.3h4.5c0.7,0,1.3,0.6,1.3,1.3V24z M21.3,25.5H17c-0.6,0-1-0.4-1-1v-6.2
	c0-0.2-0.2-0.3-0.3-0.3h-3.3c-0.2,0-0.3,0.2-0.3,0.3v6.2c0,0.6-0.4,1-1,1H6.8c-1,0-1.8-0.8-1.8-1.8v-9.2H3.1c-0.5,0-1-0.3-1.2-0.7
	c-0.2-0.5-0.1-1.1,0.3-1.5L13,2.9c0.2-0.2,0.6-0.4,1-0.4c0.4,0,0.8,0.2,1,0.4l10.8,9.3c0,0,0,0,0,0c0.4,0.4,0.5,1,0.3,1.5
	c-0.2,0.5-0.7,0.7-1.2,0.7H23v9.2C23,24.7,22.2,25.5,21.3,25.5z"/>
</svg>
