<?xml version="1.0" encoding="utf-8"?>
<!-- Generator: Adobe Illustrator 24.1.1, SVG Export Plug-In . SVG Version: 6.00 Build 0)  -->
<svg version="1.1" id="圖層_1" xmlns="http://www.w3.org/2000/svg" xmlns:xlink="http://www.w3.org/1999/xlink" x="0px" y="0px"
	 viewBox="0 0 20 20" style="enable-background:new 0 0 20 20;" xml:space="preserve">
<style type="text/css">
	.st0{fill:#FFFFFF;}
</style>
<g transform="translate(-450 -1073)">
	<path class="st0" d="M465.5,1080.6l-2.7,4.4c-0.4,0.6-1.2,0.9-1.9,0.5c0,0-0.1-0.1-0.1-0.1l-2.2-1.6c-0.2-0.2-0.5-0.2-0.7,0
		l-2.9,2.3c-0.4,0.3-0.9-0.2-0.6-0.6l2.7-4.4c0.4-0.6,1.2-0.9,1.9-0.5c0,0,0.1,0.1,0.1,0.1l2.2,1.6c0.2,0.2,0.5,0.2,0.7,0l2.9-2.3
		C465.3,1079.7,465.8,1080.2,465.5,1080.6 M460,1073.8c-5.2,0-9.2,3.8-9.2,9c0,2.7,1.1,5,2.9,6.6c0.2,0.1,0.2,0.3,0.2,0.5l0,1.6
		c0,0.4,0.4,0.7,0.8,0.7c0.1,0,0.2,0,0.3-0.1l1.8-0.8c0.2-0.1,0.3-0.1,0.5,0c0.8,0.2,1.7,0.4,2.7,0.4c5.2,0,9.2-3.8,9.2-9
		C469.2,1077.6,465.2,1073.8,460,1073.8"/>
</g>
</svg>
