<svg xmlns:xlink="http://www.w3.org/1999/xlink" xmlns="http://www.w3.org/2000/svg" viewBox="0 0 16 16" width="12" height="12" fill="currentColor" title="分享對象：你的朋友的朋友" class="x19dipnz x1lliihq x1k90msu x2h7rmj x1qfuztq" style="--color: var(--secondary-icon);"><title>分享對象：你的朋友的朋友</title><g fill-rule="evenodd" transform="translate(-448 -544)" fill="#B0B3B8"><path d="M451 552c-.827 0-1.5-.784-1.5-1.75 0-1.08.575-1.75 1.5-1.75s1.5.67 1.5 1.75c0 .966-.673 1.75-1.5 1.75m10 0c-.827 0-1.5-.784-1.5-1.75 0-1.08.575-1.75 1.5-1.75s1.5.67 1.5 1.75c0 .966-.673 1.75-1.5 1.75m-5-.5c-1.24 0-2.25-1.121-2.25-2.5 0-1.542.863-2.5 2.25-2.5s2.25.958 2.25 2.5c0 1.379-1.01 2.5-2.25 2.5m-5.5 5.06v-.496c0-.963.303-1.856.815-2.593a.3.3 0 0 0-.245-.471h-.388a2.685 2.685 0 0 0-2.682 2.682 1.32 1.32 0 0 0 1.318 1.318h.886a.302.302 0 0 0 .3-.318 1.975 1.975 0 0 1-.004-.122m8.56 1.44h-6.12c-.794 0-1.44-.646-1.44-1.44v-.496a3.568 3.568 0 0 1 3.564-3.564h1.872a3.568 3.568 0 0 1 3.564 3.564v.496c0 .794-.646 1.44-1.44 1.44m2.258-5h-.387a.3.3 0 0 0-.247.471c.513.737.816 1.63.816 2.593v.496c0 .04-.002.081-.004.122a.3.3 0 0 0 .3.318h.886a1.32 1.32 0 0 0 1.318-1.318 2.685 2.685 0 0 0-2.682-2.682" fill="#B0B3B8"></path></g></svg>