<svg id="圖層_1" data-name="圖層 1" xmlns="http://www.w3.org/2000/svg" viewBox="0 0 999 318"><defs><style>.cls-1{fill:#fd8f2f;}.cls-2{fill:#fff;}.cls-3{fill:#282828;}.cls-4{fill:#2a579b;}</style></defs><path class="cls-1" d="M280.4,125.33C300.48,112.06,312.84,94,312.84,74c0-37.27-43.18-68.08-99.25-73a46.6,46.6,0,0,0-5.2-.38Q203.13.3,197.74.31c-32.26,0-61.42,8.5-82.32,22.19-42.7,22.51-70.7,60.24-70.7,103,0,43.6,29.13,82,73.28,104.32,20.69,12.73,48.78,20.56,79.74,20.56,1.58,0,3.15,0,4.72-.06s3.37.06,5.07.06a46.11,46.11,0,0,0,10-1.09c54.13-6,95.3-36.25,95.3-72.64C312.84,156.69,300.48,138.6,280.4,125.33Z"/><circle class="cls-2" cx="164.4" cy="73.85" r="25.69"/><circle class="cls-3" cx="172.14" cy="73.85" r="17.96" transform="translate(71.81 232.03) rotate(-80.83)"/><circle class="cls-2" cx="230.16" cy="73.85" r="25.69"/><circle class="cls-3" cx="237.9" cy="73.85" r="17.96" transform="translate(127.09 296.95) rotate(-80.83)"/><path class="cls-4" d="M170.31,227.48c14.53-9.61,23.48-22.7,23.48-37.14,0-27-31.27-49.29-71.86-52.88a33.28,33.28,0,0,0-3.77-.27q-3.81-.23-7.71-.23C87.1,137,66,143.12,50.85,153,19.94,169.33-.33,196.64-.33,227.59c0,31.57,21.09,59.35,53.05,75.52C67.7,312.33,88,318,110.45,318c1.15,0,2.29,0,3.42,0s2.44,0,3.67,0a33,33,0,0,0,7.25-.79c39.19-4.35,69-26.24,69-52.59C193.79,250.19,184.84,237.09,170.31,227.48Z"/><circle class="cls-2" cx="86.32" cy="190.21" r="18.6"/><circle class="cls-3" cx="91.92" cy="190.21" r="13"/><circle class="cls-2" cx="133.93" cy="190.21" r="18.6"/><circle class="cls-3" cx="139.53" cy="190.21" r="13"/><path class="cls-2" d="M429.88,164.73a9.08,9.08,0,0,1,3.14,7.06,8.61,8.61,0,0,1-2.19,5.82,7,7,0,0,1-5.66,2.66H425a7.44,7.44,0,0,1-5.81-2.66q-3.13-3.78-6.6-7.39a.3.3,0,0,0-.47-.15.49.49,0,0,0-.31.47v23.09a9.19,9.19,0,0,1-18.38,0V173.52a.36.36,0,0,0-.23-.39c-.16,0-.29,0-.4.23a131.62,131.62,0,0,1-12.88,15.4,6.47,6.47,0,0,1-4.71,2,3.64,3.64,0,0,1-1.1-.16,8.19,8.19,0,0,1-5.65-3.45,9.46,9.46,0,0,1-1.73-5.5v-1.1a9.28,9.28,0,0,1,3.14-6,94.94,94.94,0,0,0,19-24.5,1.07,1.07,0,0,0,0-.79.64.64,0,0,0-.63-.31H374.59a8.06,8.06,0,0,1-8-8,7.47,7.47,0,0,1,2.36-5.58,7.83,7.83,0,0,1,5.65-2.28h17.75c.73,0,1.1-.42,1.1-1.26v-9.73a1,1,0,0,0-1.1-1.1h-19a8,8,0,0,1,0-16h6.59c.73,0,1.05-.37.95-1.11a75,75,0,0,0-2.36-11.46,7.23,7.23,0,0,1,.63-5.66,6.2,6.2,0,0,1,4.55-3.14v-.23s-.05-.08-.15-.08h-7.86a7.77,7.77,0,0,1-7.85-7.78,7.5,7.5,0,0,1,2.27-5.49,7.59,7.59,0,0,1,5.58-2.28h16A1.11,1.11,0,0,0,393,66.55V62.62a9.12,9.12,0,0,1,9.19-9.11,8.88,8.88,0,0,1,6.52,2.67,8.78,8.78,0,0,1,2.67,6.44v3.93c0,.84.36,1.26,1.1,1.26h16a7.79,7.79,0,0,1,7.7,7.77,7.49,7.49,0,0,1-2.28,5.5,7.41,7.41,0,0,1-5.42,2.28h-6.28v.15a6.33,6.33,0,0,1,4.24,3,7,7,0,0,1,.78,3.14,7.39,7.39,0,0,1-.31,2q-3.45,9.58-4.4,12.41a.57.57,0,0,0,.08.63.83.83,0,0,0,.71.32h6.44a8,8,0,0,1,0,16H412.92a1,1,0,0,0-1.1,1.1v9.73c0,.84.37,1.26,1.1,1.26h15.24A7.79,7.79,0,0,1,436,141a7.85,7.85,0,0,1-2.28,5.65,7.45,7.45,0,0,1-5.57,2.36H412.29a.41.41,0,0,0-.47.47,1,1,0,0,0,.31.78Q418.27,154.83,429.88,164.73ZM411.82,84.62c.1-.84-.26-1.26-1.1-1.26H392.5a.67.67,0,0,0-.55.39.72.72,0,0,0-.08.71,78.93,78.93,0,0,1,3.46,11.47,5.7,5.7,0,0,1,.31,1.72,7,7,0,0,1-1.26,3.93,8.05,8.05,0,0,1-4.86,3.3V105h26.07v-.16a7.71,7.71,0,0,1-5.18-3.77,8,8,0,0,1-1.26-4.24,9.19,9.19,0,0,1,.31-2.2Q411,88.7,411.82,84.62Zm82.94,99.27H499c1,0,1.75-.65,2.12-2a51.1,51.1,0,0,0,.86-8.71,4.62,4.62,0,0,1,2.52-4.09,5.78,5.78,0,0,1,2.82-.78,5.41,5.41,0,0,1,2.2.47,11.6,11.6,0,0,1,5.66,4.55,9.3,9.3,0,0,1,1.73,5.34V180q-1.57,11.63-5.11,15.95T501,200.22h-9.27q-9.9,0-13.19-4.39t-3.3-16.18V153.89a1,1,0,0,0-1.1-1.1h-5.34c-.84,0-1.31.36-1.41,1.1q-1.57,16.8-7.07,27.72T442,199.6a8.81,8.81,0,0,1-3.93.94,8.55,8.55,0,0,1-2.67-.47,12,12,0,0,1-5.65-4.24,7,7,0,0,1-1.26-3.93,10,10,0,0,1,.16-1.73,6.16,6.16,0,0,1,3.3-4.4q9.42-5,13.19-12.56t5-19.64c.1-.52-.16-.78-.79-.78a7,7,0,0,1-5.26-2.2A7.26,7.26,0,0,1,442,145.4V69.06a8.84,8.84,0,0,1,2.75-6.59,9,9,0,0,1,6.52-2.67h47.28a9.14,9.14,0,0,1,9.27,9.26v74.46a9.05,9.05,0,0,1-2.68,6.52,8.84,8.84,0,0,1-6.59,2.75h-4.71a1,1,0,0,0-1.11,1.1v25.6a10,10,0,0,0,.4,3.61A1.65,1.65,0,0,0,494.76,183.89ZM460.2,76.29c-.73,0-1.1.42-1.1,1.26v7.38c0,.84.37,1.26,1.1,1.26h28.43c.73,0,1.1-.42,1.1-1.26V77.55c0-.84-.37-1.26-1.1-1.26Zm0,24.82a1,1,0,0,0-1.1,1.1v7.85a1,1,0,0,0,1.1,1.1h28.43a1,1,0,0,0,1.1-1.1v-7.85a1,1,0,0,0-1.1-1.1Zm0,25.13a1,1,0,0,0-1.1,1.1V135a1,1,0,0,0,1.1,1.1h28.43a1,1,0,0,0,1.1-1.1v-7.7a1,1,0,0,0-1.1-1.1Z"/><path class="cls-2" d="M590.73,164.73a9.08,9.08,0,0,1,3.14,7.06,8.61,8.61,0,0,1-2.19,5.82,7,7,0,0,1-5.66,2.66h-.16a7.44,7.44,0,0,1-5.81-2.66q-3.13-3.78-6.6-7.39a.3.3,0,0,0-.47-.15.49.49,0,0,0-.31.47v23.09a9.19,9.19,0,0,1-18.38,0V173.52a.36.36,0,0,0-.23-.39c-.16,0-.29,0-.4.23a131.62,131.62,0,0,1-12.88,15.4,6.47,6.47,0,0,1-4.71,2,3.64,3.64,0,0,1-1.1-.16,8.19,8.19,0,0,1-5.65-3.45,9.46,9.46,0,0,1-1.73-5.5v-1.1a9.28,9.28,0,0,1,3.14-6,94.94,94.94,0,0,0,19-24.5,1.07,1.07,0,0,0,0-.79.64.64,0,0,0-.63-.31H535.44a8.06,8.06,0,0,1-8-8,7.47,7.47,0,0,1,2.36-5.58,7.83,7.83,0,0,1,5.65-2.28h17.75c.73,0,1.1-.42,1.1-1.26v-9.73a1,1,0,0,0-1.1-1.1h-19a8,8,0,0,1,0-16h6.6c.73,0,1.05-.37.94-1.11a73.74,73.74,0,0,0-2.35-11.46,7.23,7.23,0,0,1,.63-5.66,6.2,6.2,0,0,1,4.55-3.14v-.23s0-.08-.15-.08h-7.86a7.77,7.77,0,0,1-7.85-7.78A7.5,7.5,0,0,1,531,70.09a7.59,7.59,0,0,1,5.58-2.28h16a1.11,1.11,0,0,0,1.26-1.26V62.62A9.12,9.12,0,0,1,563,53.51a8.88,8.88,0,0,1,6.52,2.67,8.78,8.78,0,0,1,2.67,6.44v3.93c0,.84.36,1.26,1.1,1.26h16a7.79,7.79,0,0,1,7.7,7.77,7.49,7.49,0,0,1-2.28,5.5,7.41,7.41,0,0,1-5.42,2.28H583v.15a6.36,6.36,0,0,1,4.24,3,7,7,0,0,1,.78,3.14,7.39,7.39,0,0,1-.31,2q-3.45,9.58-4.4,12.41a.57.57,0,0,0,.08.63.83.83,0,0,0,.71.32h6.44a8,8,0,0,1,0,16H573.77a1,1,0,0,0-1.1,1.1v9.73c0,.84.36,1.26,1.1,1.26H589a7.79,7.79,0,0,1,7.85,7.86,7.85,7.85,0,0,1-2.28,5.65A7.45,7.45,0,0,1,589,149H573.14a.41.41,0,0,0-.47.47,1,1,0,0,0,.31.78Q579.12,154.83,590.73,164.73ZM572.67,84.62c.1-.84-.26-1.26-1.1-1.26H553.35a.67.67,0,0,0-.55.39.69.69,0,0,0-.08.71,78.93,78.93,0,0,1,3.46,11.47,5.7,5.7,0,0,1,.31,1.72,7,7,0,0,1-1.26,3.93,8.05,8.05,0,0,1-4.86,3.3V105h26.07v-.16a7.71,7.71,0,0,1-5.18-3.77A8,8,0,0,1,570,96.87a9.19,9.19,0,0,1,.31-2.2Q571.89,88.7,572.67,84.62Zm82.94,99.27h4.24c1,0,1.75-.65,2.12-2a51.1,51.1,0,0,0,.86-8.71,4.62,4.62,0,0,1,2.52-4.09,5.78,5.78,0,0,1,2.82-.78,5.41,5.41,0,0,1,2.2.47,11.6,11.6,0,0,1,5.66,4.55,9.3,9.3,0,0,1,1.73,5.34V180q-1.57,11.63-5.11,15.95t-10.76,4.31h-9.27q-9.9,0-13.19-4.39t-3.3-16.18V153.89a1,1,0,0,0-1.1-1.1h-5.34c-.84,0-1.31.36-1.41,1.1q-1.57,16.8-7.07,27.72t-18.38,18a8.81,8.81,0,0,1-3.93.94,8.55,8.55,0,0,1-2.67-.47,12,12,0,0,1-5.65-4.24,7,7,0,0,1-1.26-3.93,10,10,0,0,1,.16-1.73,6.16,6.16,0,0,1,3.3-4.4q9.42-5,13.19-12.56t5-19.64c.1-.52-.16-.78-.79-.78a7,7,0,0,1-5.26-2.2,7.26,7.26,0,0,1-2.12-5.19V69.06a8.84,8.84,0,0,1,2.75-6.59,9,9,0,0,1,6.52-2.67h47.28a9.14,9.14,0,0,1,9.27,9.26v74.46A9.05,9.05,0,0,1,666,150a8.84,8.84,0,0,1-6.59,2.75h-4.72a1,1,0,0,0-1.1,1.1v25.6a10,10,0,0,0,.4,3.61A1.65,1.65,0,0,0,655.61,183.89ZM621.05,76.29c-.73,0-1.1.42-1.1,1.26v7.38c0,.84.37,1.26,1.1,1.26h28.43c.73,0,1.1-.42,1.1-1.26V77.55c0-.84-.37-1.26-1.1-1.26Zm0,24.82a1,1,0,0,0-1.1,1.1v7.85a1,1,0,0,0,1.1,1.1h28.43a1,1,0,0,0,1.1-1.1v-7.85a1,1,0,0,0-1.1-1.1Zm0,25.13a1,1,0,0,0-1.1,1.1V135a1,1,0,0,0,1.1,1.1h28.43a1,1,0,0,0,1.1-1.1v-7.7a1,1,0,0,0-1.1-1.1Z"/><path class="cls-2" d="M773.1,108.81a7.12,7.12,0,0,1,5.26,2.12,7.39,7.39,0,0,1,0,10.36,7.12,7.12,0,0,1-5.26,2.12H694.4a6.92,6.92,0,0,1-5.1-2.12,7.39,7.39,0,0,1,0-10.36,6.92,6.92,0,0,1,5.1-2.12h29.38q1.26,0,1.26-1.11v-4.55a1.11,1.11,0,0,0-1.26-1.26h-17a9.37,9.37,0,0,1-9.26-9.26V67.18a9.37,9.37,0,0,1,9.26-9.27h55a8.85,8.85,0,0,1,6.6,2.75,9,9,0,0,1,2.67,6.52V92.63a9,9,0,0,1-2.67,6.51,8.81,8.81,0,0,1-6.6,2.75H743.57a1.11,1.11,0,0,0-1.26,1.26v4.55q0,1.11,1.26,1.11ZM698.17,174a11.94,11.94,0,0,1,5.19-4.71,9.63,9.63,0,0,1,4.08-.94,10.35,10.35,0,0,1,2.52.31,6.59,6.59,0,0,1,4.39,3.93,5.89,5.89,0,0,1,.63,2.67,6.06,6.06,0,0,1-.78,3,87.22,87.22,0,0,1-9.74,14.45,7.62,7.62,0,0,1-5.66,3,3.09,3.09,0,0,1-.94.16,9.53,9.53,0,0,1-5.5-1.73,6.37,6.37,0,0,1-2.82-4.87,2.81,2.81,0,0,1-.16-.94,6.84,6.84,0,0,1,1.73-4.56A57.35,57.35,0,0,0,698.17,174Zm71.63-19a9.12,9.12,0,0,1-9.26,9.26h-17a1.11,1.11,0,0,0-1.26,1.26v21.21c0,3.77-.47,6.64-1.41,8.64a10.06,10.06,0,0,1-5.34,4.71q-4.56,2.19-12.41,2.51h-.63a9.92,9.92,0,0,1-5.81-1.88,14.29,14.29,0,0,1-4.71-5.5,4.72,4.72,0,0,1,.23-4.64,4.06,4.06,0,0,1,4-2.12h2.2a34,34,0,0,0,3.92-.15,3.34,3.34,0,0,0,2.12-.48,1.94,1.94,0,0,0,.56-1.57V165.51a1.11,1.11,0,0,0-1.26-1.26H707.91a9.12,9.12,0,0,1-9.26-9.26V139.28a9,9,0,0,1,2.67-6.52,8.82,8.82,0,0,1,6.59-2.75h52.63a8.84,8.84,0,0,1,6.59,2.75,9,9,0,0,1,2.67,6.52Zm-54-86.24c-.74,0-1.1.42-1.1,1.26v3.92a1,1,0,0,0,1.1,1.1h36.6c.83,0,1.25-.36,1.25-1.1V70a1.11,1.11,0,0,0-1.25-1.26Zm0,16c-.74,0-1.1.42-1.1,1.26v4.24a1,1,0,0,0,1.1,1.1h36.6c.83,0,1.25-.37,1.25-1.1V86a1.11,1.11,0,0,0-1.25-1.26Zm.31,57.49a1.11,1.11,0,0,0-1.26,1.26v7.22c0,.74.42,1.1,1.26,1.1h35.34c.84,0,1.26-.36,1.26-1.1v-7.22a1.11,1.11,0,0,0-1.26-1.26Zm98.49,9.11a14,14,0,0,1,6.13-4.87,12.52,12.52,0,0,1,3.92-.62,10.28,10.28,0,0,1,3.46.62l1.41.47a7.14,7.14,0,0,1,4.72,4.56,8.55,8.55,0,0,1,.47,2.67,6.91,6.91,0,0,1-1.1,3.77q-15.41,24.51-42.1,40.37a9.1,9.1,0,0,1-4.71,1.41,10.35,10.35,0,0,1-2.52-.31,12.21,12.21,0,0,1-6.28-4.08,42.64,42.64,0,0,0-3-3.3,1.35,1.35,0,0,0-1.89-.32l-1.41.63a9.84,9.84,0,0,1-4.4,1.1,9,9,0,0,1-2.83-.47,10.74,10.74,0,0,1-5.81-4.24q-2.82-4.39-6.28-9A5.78,5.78,0,0,1,751,176a7.68,7.68,0,0,1,.16-1.57,6.18,6.18,0,0,1,3.46-4.24,9.14,9.14,0,0,1,4.39-1.1,16.16,16.16,0,0,1,2.2.16,10,10,0,0,1,5.5,3.45q4.56,5.51,8,10.53a1.27,1.27,0,0,0,1.73.47Q801.06,171.33,814.57,151.37Zm-7.23-89.06a14.62,14.62,0,0,1,6.6-4.08,12.31,12.31,0,0,1,3.3-.48,11.11,11.11,0,0,1,4.4,1l1.26.47A6.25,6.25,0,0,1,827,63.88a5.51,5.51,0,0,1,.31,1.73,6.12,6.12,0,0,1-1.72,4.24,150.08,150.08,0,0,1-29.07,25.6,10.16,10.16,0,0,1-5.65,1.73,7.61,7.61,0,0,1-1.57-.16,11.54,11.54,0,0,1-6.75-3.61,2.34,2.34,0,0,0-.63-.47,6.65,6.65,0,0,1-2-4.87v-.79a6.3,6.3,0,0,1,3.15-5A117.25,117.25,0,0,0,807.34,62.31ZM810,106.92a15.67,15.67,0,0,1,6.76-4.08,15.86,15.86,0,0,1,3.14-.32,11.63,11.63,0,0,1,4.56.94l.63.32a6.67,6.67,0,0,1,4.24,4.71,11.14,11.14,0,0,1,.15,1.73,6.09,6.09,0,0,1-1.73,4.24,162,162,0,0,1-30.63,26.7,9.92,9.92,0,0,1-5.49,1.73,8.42,8.42,0,0,1-1.73-.16,11.59,11.59,0,0,1-6.76-3.61l-.62-.63a6.12,6.12,0,0,1-2-4.71,1.8,1.8,0,0,1,.16-.78,6.31,6.31,0,0,1,3.14-5A119,119,0,0,0,810,106.92Z"/><path class="cls-2" d="M976.2,116.66a8.74,8.74,0,0,1,4.09-5.5,8.16,8.16,0,0,1,4.87-1.57,10.11,10.11,0,0,1,1.73.16,8.21,8.21,0,0,1,5.49,3.61,7.83,7.83,0,0,1,1,6.44q-7.55,27-19.17,45.71a3.41,3.41,0,0,0-.47,2.2q3.93,15.56,8.33,15.55,2.82,0,3.77-15.55a3.61,3.61,0,0,1,2.43-3.3,3.79,3.79,0,0,1,4.16.63q6.29,4.71,6.29,10.84a11.24,11.24,0,0,1-.16,1.73q-2,13.19-6.2,18.3T979.82,201Q969,201,961.6,184.2c-.32-.73-.74-.78-1.26-.16a102.92,102.92,0,0,1-14.29,13.52,9.47,9.47,0,0,1-5.82,2H939a11.84,11.84,0,0,1-6.76-3.3,6.77,6.77,0,0,1-2.2-5.19,7,7,0,0,1,2.83-5.81,98.28,98.28,0,0,0,21.52-21.2,2.14,2.14,0,0,0,.47-2q-5.34-25.76-7.22-68.64c0-.73-.42-1.1-1.26-1.1h-28.9c-.84,0-1.26.37-1.26,1.1v15.08c0,.74.42,1.1,1.26,1.1h18.06a8.22,8.22,0,0,1,6.44,2.83,8.59,8.59,0,0,1,2.67,6.28q0,22-1.25,37.86-.79,11-3,14a13.64,13.64,0,0,1-8.95,5.65c-1.16.21-2.67.42-4.56.63h-.63a8.69,8.69,0,0,1-6.12-2.51,12.78,12.78,0,0,1-4.09-6.6,23.47,23.47,0,0,0-1.88-4.87c-.11-.21-.24-.29-.39-.23a1.05,1.05,0,0,0-.4.23,105.09,105.09,0,0,1-4.55,18.06,70,70,0,0,1-7.54,15.4,6.91,6.91,0,0,1-5.66,3.14h-.47a9,9,0,0,1-6.12-2.36,10,10,0,0,1-3.3-6v-1.57a10.46,10.46,0,0,1,1.41-5.18,63,63,0,0,0,7.23-16.65.41.41,0,0,0-.16-.55,1,1,0,0,0-.63-.24q-6.12,2.52-17.28,7.15t-14.6,6.05a8.8,8.8,0,0,1-3.3.63,8.18,8.18,0,0,1-3.46-.79,8,8,0,0,1-4.55-5.18l-.48-1.42a9,9,0,0,1-.47-2.82,8.85,8.85,0,0,1,1.1-4.24,9.22,9.22,0,0,1,5.34-4.56c1.15-.31,3.4-1.05,6.76-2.2a1.46,1.46,0,0,0,1.1-1.57V109.75c0-.84-.37-1.26-1.1-1.26h-4.09a8.45,8.45,0,0,1-6.2-2.59,8.92,8.92,0,0,1,0-12.57,8.45,8.45,0,0,1,6.2-2.59h4.09a1,1,0,0,0,1.1-1.1V63.57a8.88,8.88,0,0,1,17.75,0V89.64a1,1,0,0,0,1.1,1.1h2.51a8.84,8.84,0,0,1,8.95,8.88,8.54,8.54,0,0,1-2.59,6.28,8.64,8.64,0,0,1-6.36,2.59h-2.51c-.74,0-1.1.42-1.1,1.26v41.94a.78.78,0,0,0,1.1.78l2.51-.94a8.55,8.55,0,0,1,2.67-.47,7.74,7.74,0,0,1,3.93,1.1,8.18,8.18,0,0,1,3.92,5.5l.32,1.41c0,.21,0,.31.15.31s.21-.1.32-.31q2.19-11.94,2.2-30.79V84.14a9.37,9.37,0,0,1,9.27-9.26h38c.84,0,1.26-.37,1.26-1.1q-.33-10.85-.32-12.41a8.92,8.92,0,0,1,2.51-6.29,9.09,9.09,0,0,1,6.44-2.51,8.85,8.85,0,0,1,9,9V73.78c0,.73.42,1.1,1.26,1.1h10.2a.52.52,0,0,0,.48-.32.7.7,0,0,0,0-.63,93.83,93.83,0,0,0-6.6-8.64,6.66,6.66,0,0,1-1.42-4.08v-1.1a6.23,6.23,0,0,1,3-4.4,9.35,9.35,0,0,1,4.87-1.41,4.82,4.82,0,0,1,1.25.16,8.24,8.24,0,0,1,5.66,2.82q3.62,3.93,6.44,7.54a6.08,6.08,0,0,1,1.26,3.62A8.45,8.45,0,0,1,991,70a6.61,6.61,0,0,1-3.3,4.39l.16.48H988a7.77,7.77,0,0,1,7.85,7.85v.78a8.63,8.63,0,0,1-2.51,6.21,8.21,8.21,0,0,1-6.13,2.59H966.31c-.84,0-1.21.37-1.1,1.1q1.26,26.72,3.45,44.14c0,.21.08.31.24.31a.53.53,0,0,0,.39-.15A155.19,155.19,0,0,0,976.2,116.66Zm-47.28,9.58a1.11,1.11,0,0,0-1.25-1.26H917.46a1.11,1.11,0,0,0-1.26,1.26v2A203.25,203.25,0,0,1,914,160c-.1.84.21,1.31.94,1.42,2.31.21,4.87.31,7.7.31a5.07,5.07,0,0,0,4.09-1.89Q928.46,156.71,928.92,126.24Z"/><path class="cls-2" d="M392.15,289.84a23.52,23.52,0,0,1-9-1.7,21.61,21.61,0,0,1-7.34-4.94,22.76,22.76,0,0,1-5-8.2,34.52,34.52,0,0,1,0-22.27,23.74,23.74,0,0,1,5.1-8.37,22.5,22.5,0,0,1,7.51-5.14,23,23,0,0,1,9.06-1.8,19.59,19.59,0,0,1,11.81,3.94,3.31,3.31,0,0,1,1.47,2.93,4.06,4.06,0,0,1-1,2.67l-.26.33a3.73,3.73,0,0,1-2.67,1.34h-.4a4.54,4.54,0,0,1-2.53-.74,12,12,0,0,0-15.84,2.9q-3.76,4.71-3.77,12.71,0,8.21,3.57,12.9a11.47,11.47,0,0,0,9.63,4.7,12.87,12.87,0,0,0,7.47-2.4,4.45,4.45,0,0,1,2.61-.8h.26a3.44,3.44,0,0,1,2.6,1.27l.27.27a4.08,4.08,0,0,1,1.07,2.79,3.56,3.56,0,0,1-1.34,2.94A20.17,20.17,0,0,1,392.15,289.84Z"/><path class="cls-2" d="M420.29,288.9a4,4,0,0,1-3.94-3.93V242.29a4,4,0,0,1,3.94-3.93h2.26a4,4,0,0,1,3.94,3.93v15.47a.42.42,0,0,0,.46.47h18.14a.42.42,0,0,0,.47-.47V242.29a4,4,0,0,1,3.94-3.93h2.2a4,4,0,0,1,3.93,3.93V285a4,4,0,0,1-3.93,3.93h-2.2a4,4,0,0,1-3.94-3.93V267.56c0-.35-.16-.53-.47-.53H427c-.3,0-.46.18-.46.53V285a4,4,0,0,1-3.94,3.93Z"/><path class="cls-2" d="M472,288.9A4,4,0,0,1,468,285V242.29a4,4,0,0,1,3.94-3.93h2.27a4,4,0,0,1,3.93,3.93V285a4,4,0,0,1-3.93,3.93Z"/><path class="cls-2" d="M494.44,288.9a3.77,3.77,0,0,1-2.77-1.16,3.81,3.81,0,0,1-1.16-2.77V242.29a3.81,3.81,0,0,1,1.16-2.77,3.77,3.77,0,0,1,2.77-1.16h2.47a6.61,6.61,0,0,1,5.8,3.46l12.8,23.48,5,10.73c0,.14.12.2.23.2s.17-.06.17-.2q-1.33-12.27-1.34-17.54v-16.2a4,4,0,0,1,3.94-3.93h1.73a4,4,0,0,1,3.93,3.93V285a4,4,0,0,1-3.93,3.93h-2.4a6.61,6.61,0,0,1-5.8-3.46l-12.74-23.61-5.07-10.67A.23.23,0,0,0,499,251c-.11,0-.17,0-.17.13.09.67.22,2,.4,4.07s.31,3.61.4,4.7.19,2.48.3,4.17.17,3.2.17,4.53V285a4,4,0,0,1-3.94,3.93Z"/><path class="cls-2" d="M577.67,289.84a23.59,23.59,0,0,1-9-1.7,21.61,21.61,0,0,1-7.34-4.94,22.76,22.76,0,0,1-5-8.2,32.15,32.15,0,0,1-1.83-11.17,31.8,31.8,0,0,1,1.86-11.1,23.61,23.61,0,0,1,5.11-8.37,22.36,22.36,0,0,1,7.5-5.14,23.09,23.09,0,0,1,9.07-1.8,19.56,19.56,0,0,1,11.8,3.94,3.31,3.31,0,0,1,1.47,2.93,4.05,4.05,0,0,1-1,2.67l-.27.33a3.73,3.73,0,0,1-2.67,1.34H587a4.57,4.57,0,0,1-2.53-.74,11.7,11.7,0,0,0-6.2-1.8,11.83,11.83,0,0,0-9.64,4.7q-3.76,4.71-3.77,12.71,0,8.21,3.57,12.9a11.48,11.48,0,0,0,9.64,4.7,12.89,12.89,0,0,0,7.47-2.4,4.4,4.4,0,0,1,2.6-.8h.26a3.47,3.47,0,0,1,2.61,1.27l.26.27a4.08,4.08,0,0,1,1.07,2.79,3.58,3.58,0,0,1-1.33,2.94A20.21,20.21,0,0,1,577.67,289.84Z"/><path class="cls-2" d="M605.81,288.9a4,4,0,0,1-3.94-3.93V242.29a4,4,0,0,1,3.94-3.93h2.27a4,4,0,0,1,3.93,3.93v15.47a.42.42,0,0,0,.47.47h18.14a.41.41,0,0,0,.46-.47V242.29a4,4,0,0,1,3.94-3.93h2.2a4,4,0,0,1,3.93,3.93V285a4,4,0,0,1-3.93,3.93H635a4,4,0,0,1-3.94-3.93V267.56c0-.35-.15-.53-.46-.53H612.48c-.31,0-.47.18-.47.53V285a4,4,0,0,1-3.93,3.93Z"/><path class="cls-2" d="M657.49,288.9a3.77,3.77,0,0,1-2.77-1.16,3.81,3.81,0,0,1-1.16-2.77V242.29a3.81,3.81,0,0,1,1.16-2.77,3.77,3.77,0,0,1,2.77-1.16h2.27a4,4,0,0,1,3.93,3.93V285a4,4,0,0,1-3.93,3.93Z"/><path class="cls-2" d="M680,288.9A4,4,0,0,1,676,285V242.29a4,4,0,0,1,3.93-3.93h2.47a6.61,6.61,0,0,1,5.8,3.46L701,265.3,706,276c0,.14.12.2.23.2s.17-.06.17-.2q-1.34-12.27-1.33-17.54v-16.2a4,4,0,0,1,3.93-3.93h1.73a4,4,0,0,1,3.94,3.93V285a4,4,0,0,1-3.94,3.93h-2.4a6.61,6.61,0,0,1-5.8-3.46l-12.74-23.61-5.06-10.67a.25.25,0,0,0-.24-.13c-.11,0-.17,0-.17.13.09.67.23,2,.41,4.07s.31,3.61.4,4.7.19,2.48.3,4.17.16,3.2.16,4.53V285a3.81,3.81,0,0,1-1.16,2.77,3.77,3.77,0,0,1-2.77,1.16Z"/><path class="cls-2" d="M763.19,289.84a23.59,23.59,0,0,1-9-1.7,21.57,21.57,0,0,1-7.33-4.94,22.78,22.78,0,0,1-5-8.2,32.15,32.15,0,0,1-1.83-11.17,31.57,31.57,0,0,1,1.87-11.1,23.45,23.45,0,0,1,5.1-8.37,22.46,22.46,0,0,1,7.5-5.14,23.09,23.09,0,0,1,9.07-1.8,19.56,19.56,0,0,1,11.8,3.94,3.31,3.31,0,0,1,1.47,2.93,4.05,4.05,0,0,1-1,2.67l-.27.33a3.69,3.69,0,0,1-2.66,1.34h-.4a4.58,4.58,0,0,1-2.54-.74,11.65,11.65,0,0,0-6.2-1.8,11.81,11.81,0,0,0-9.63,4.7q-3.78,4.71-3.77,12.71,0,8.21,3.57,12.9a11.45,11.45,0,0,0,9.63,4.7,12.87,12.87,0,0,0,7.47-2.4,4.42,4.42,0,0,1,2.6-.8h.27a3.44,3.44,0,0,1,2.6,1.27l.26.27a4,4,0,0,1,1.07,2.79,3.55,3.55,0,0,1-1.33,2.94A20.19,20.19,0,0,1,763.19,289.84Z"/><path class="cls-2" d="M791.33,288.9a3.77,3.77,0,0,1-2.77-1.16A3.81,3.81,0,0,1,787.4,285V242.29a3.81,3.81,0,0,1,1.16-2.77,3.77,3.77,0,0,1,2.77-1.16h2.27a3.77,3.77,0,0,1,2.77,1.16,3.81,3.81,0,0,1,1.16,2.77V285a3.81,3.81,0,0,1-1.16,2.77,3.77,3.77,0,0,1-2.77,1.16Z"/><path class="cls-2" d="M813.81,288.9a4,4,0,0,1-3.94-3.93V242.29a4,4,0,0,1,3.94-3.93h2.46a6.61,6.61,0,0,1,5.8,3.46l12.81,23.48,5,10.73c0,.14.12.2.23.2s.17-.06.17-.2q-1.34-12.27-1.33-17.54v-16.2a3.81,3.81,0,0,1,1.16-2.77,3.77,3.77,0,0,1,2.77-1.16h1.73a4,4,0,0,1,3.94,3.93V285a4,4,0,0,1-3.94,3.93h-2.4a6.45,6.45,0,0,1-3.36-.93,6.52,6.52,0,0,1-2.44-2.53l-12.73-23.61-5.07-10.67a.25.25,0,0,0-.24-.13c-.11,0-.16,0-.16.13.09.67.22,2,.4,4.07s.31,3.61.4,4.7.19,2.48.3,4.17.16,3.2.16,4.53V285a3.81,3.81,0,0,1-1.16,2.77,3.77,3.77,0,0,1-2.77,1.16Z"/><path class="cls-2" d="M864.89,288.9A4,4,0,0,1,861,285V242.29a4,4,0,0,1,3.94-3.93H888a3.74,3.74,0,0,1,2.8,1.16,3.86,3.86,0,0,1,1.13,2.77v.53a3.86,3.86,0,0,1-3.93,3.94H871.56c-.31,0-.47.18-.47.53V258a.42.42,0,0,0,.47.47h13.33a4,4,0,0,1,3.94,3.93v.6a3.72,3.72,0,0,1-1.17,2.8,3.83,3.83,0,0,1-2.77,1.14H871.56c-.31,0-.47.18-.47.53V280a.42.42,0,0,0,.47.47h17.2a3.73,3.73,0,0,1,2.8,1.16,3.83,3.83,0,0,1,1.14,2.77v.6a3.83,3.83,0,0,1-1.14,2.77,3.73,3.73,0,0,1-2.8,1.16Z"/><path class="cls-2" d="M906.83,288.9A4,4,0,0,1,902.9,285V242.29a4,4,0,0,1,3.93-3.93h3.34a5.36,5.36,0,0,1,3.23,1,5.58,5.58,0,0,1,2,2.7L922.7,262q.27.8,3,9.6a.26.26,0,0,0,.24.14.23.23,0,0,0,.23-.14c.31-1,.8-2.54,1.47-4.7s1.18-3.79,1.53-4.9l7.14-19.94a5.12,5.12,0,0,1,2-2.7,5.42,5.42,0,0,1,3.2-1h3.33a3.73,3.73,0,0,1,2.8,1.16,3.83,3.83,0,0,1,1.14,2.77V285a3.83,3.83,0,0,1-1.14,2.77,3.73,3.73,0,0,1-2.8,1.16h-1.33a4,4,0,0,1-3.93-3.93V267.83q0-4.33,1.2-16.47c0-.09,0-.13-.1-.13s-.17,0-.17.13l-4.07,11.74-6.8,18.53a4.07,4.07,0,0,1-1.53,1.94,4.12,4.12,0,0,1-2.37.73,4.16,4.16,0,0,1-3.9-2.67L915,263.1,911,251.36a.2.2,0,0,0-.2-.13c-.09,0-.13,0-.13.13Q912,264.1,912,267.83V285a3.83,3.83,0,0,1-1.14,2.77,3.73,3.73,0,0,1-2.8,1.16Z"/><path class="cls-2" d="M992.39,288.9a5.22,5.22,0,0,1-5-3.8l-2.33-8.67a.63.63,0,0,0-.67-.53H969a.6.6,0,0,0-.6.53L966,285.1a5.19,5.19,0,0,1-1.84,2.74,4.89,4.89,0,0,1-3.1,1.06h-2.4a2.72,2.72,0,0,1-2.33-1.2,2.64,2.64,0,0,1-.54-1.6,3.33,3.33,0,0,1,.14-.93l13.8-43.08a5.32,5.32,0,0,1,5.14-3.73h4a5.42,5.42,0,0,1,5.13,3.73l13.87,43.08a3.31,3.31,0,0,1,.13.93,2.46,2.46,0,0,1-.59,1.6,2.69,2.69,0,0,1-2.27,1.2Zm-21.54-21.34a.43.43,0,0,0,0,.37.32.32,0,0,0,.3.17h11a.42.42,0,0,0,.33-.17.38.38,0,0,0,.07-.37l-1.4-5q-.87-3-2.4-8.9c-1-3.93-1.69-6.44-2-7.5,0-.09,0-.13-.14-.13a.22.22,0,0,0-.2.13q-1.94,8.13-4.26,16.4Z"/></svg>