<?xml version="1.0" encoding="utf-8"?>
<!-- Generator: Adobe Illustrator 24.1.1, SVG Export Plug-In . SVG Version: 6.00 Build 0)  -->
<svg version="1.1" id="圖層_1" xmlns="http://www.w3.org/2000/svg" xmlns:xlink="http://www.w3.org/1999/xlink" x="0px" y="0px"
	 viewBox="0 0 992 1080" style="enable-background:new 0 0 992 1080;" xml:space="preserve">
<style type="text/css">
	.st0{fill:#FFC5D8;}
	.st1{fill:none;stroke:#9FA0A0;stroke-linecap:round;stroke-linejoin:round;}
	.st2{fill:none;stroke:#ECA29F;stroke-linecap:round;stroke-linejoin:round;}
	.st3{fill:none;}
	.st4{fill:#EFEFEF;}
	.st5{fill:#DCDDDD;}
	.st6{fill:#595757;}
	.st7{fill:#3E3A39;}
	.st8{clip-path:url(#SVGID_2_);}
	.st9{fill:#E63E6E;}
</style>
<rect x="-448" y="-197.4" class="st0" width="1749.4" height="1562.6"/>
<line class="st1" x1="849.9" y1="181.9" x2="1010.9" y2="181.9"/>
<line class="st2" x1="76.9" y1="930.8" x2="-48.4" y2="930.8"/>
<image style="overflow:visible;enable-background:new    ;" width="438" height="532" xlink:href="5A1B767D.png"  transform="matrix(0.3997 0 0 0.3997 824.8469 441.6585)">
</image>
<polyline class="st3" points="998.1,441.7 824.8,441.7 824.8,652.1 "/>
<polyline class="st3" points="998.1,441.7 824.8,441.7 824.8,652.1 "/>
<path class="st4" d="M931.1,590.8h-43c-3.1,0-5.6-2.5-5.6-5.6V505c0-3.1,2.5-5.6,5.6-5.6h43c3.1,0,5.6,2.5,5.6,5.6v80.3
	C936.7,588.3,934.2,590.8,931.1,590.8"/>
<path class="st5" d="M909.6,549.1c7.1,0,12.8,5.7,12.8,12.8s-5.7,12.8-12.8,12.8s-12.8-5.7-12.8-12.8c0,0,0,0,0,0
	C896.8,554.8,902.6,549.1,909.6,549.1 M909.6,548.6c-7.3,0-13.3,5.9-13.3,13.3s5.9,13.3,13.3,13.3c7.3,0,13.3-5.9,13.3-13.3
	C922.9,554.5,916.9,548.6,909.6,548.6"/>
<path class="st6" d="M903.8,555.4h0.7c0.5,0,0.8,0.4,0.8,0.8v5.7c0,0.5-0.4,0.8-0.8,0.8h-0.7c-0.5,0-0.8-0.4-0.8-0.8v-5.7
	C902.9,555.8,903.3,555.4,903.8,555.4z"/>
<path class="st5" d="M904.5,555.6c0.3,0,0.6,0.3,0.6,0.6v5.7c0,0.3-0.3,0.6-0.6,0.6h-0.7c-0.3,0-0.6-0.3-0.6-0.6v-5.7
	c0-0.3,0.3-0.6,0.6-0.6H904.5 M904.5,555.2h-0.7c-0.6,0-1,0.5-1,1v5.7c0,0.6,0.5,1,1,1h0.7c0.6,0,1-0.5,1-1v-5.7
	C905.5,555.7,905.1,555.2,904.5,555.2"/>
<path class="st6" d="M914.7,555.4h0.7c0.5,0,0.8,0.4,0.8,0.8v5.7c0,0.5-0.4,0.8-0.8,0.8h-0.7c-0.5,0-0.8-0.4-0.8-0.8v-5.7
	C913.9,555.8,914.3,555.4,914.7,555.4z"/>
<path class="st5" d="M915.5,555.6c0.3,0,0.6,0.3,0.6,0.6v5.7c0,0.3-0.3,0.6-0.6,0.6h-0.8c-0.3,0-0.6-0.3-0.6-0.6v-5.7
	c0-0.3,0.3-0.6,0.6-0.6H915.5 M915.5,555.2h-0.8c-0.6,0-1,0.5-1,1v5.7c0,0.6,0.5,1,1,1h0.8c0.6,0,1-0.5,1-1v-5.7
	C916.5,555.7,916,555.2,915.5,555.2"/>
<path class="st6" d="M909.6,571c-2.8,0-2.8-2.1-2.8-2.2v-3.1h5.8v3.1C912.6,568.8,912.6,570.9,909.6,571"/>
<path class="st5" d="M912.3,565.9v2.9c0,0,0,2-2.8,2c-2.6,0-2.6-2-2.6-2v-2.9L912.3,565.9 M912.8,565.4h-6.2v3.3c0,0,0,2.4,3.1,2.4
	s3.2-2.4,3.2-2.4V565.4z"/>
<path class="st7" d="M922.9,528.9c0,7.3-5.9,13.3-13.3,13.3s-13.3-5.9-13.3-13.3c0-7.3,5.9-13.3,13.3-13.3
	C917,515.6,922.9,521.5,922.9,528.9L922.9,528.9"/>
<path class="st6" d="M917.2,528.9c0,4.2-3.4,7.5-7.5,7.5c-4.2,0-7.5-3.4-7.5-7.5c0-4.2,3.4-7.5,7.5-7.5
	C913.8,521.3,917.2,524.7,917.2,528.9C917.2,528.9,917.2,528.9,917.2,528.9"/>
<path class="st6" d="M845.4,394.5c0.1,5,0,10.1,0.8,15c0.8,5.2,4.1,9.7,8.9,11.9c5.9,2.9,12.6,2.2,18.7,1c13-2.6,25.7-6.7,38.9-8.5
	c4.9-0.6,10.6-1.2,15.3,0.6c4.1,1.6,6.6,5.4,5.7,9.9c-0.8,3.9-4.4,6.1-7.9,7.4c-4.6,1.7-9.7,2.3-14.6,2.8c-5.6,0.6-11.3,1-16.9,1.7
	c-4.3,0.5-9.4,1.3-12.9,3.1c-0.4,0.2-0.8,0.5-1.2,0.7c-0.2,0.1-0.4,0.3-0.6,0.5c-0.3,0.3-0.6,0.5-0.8,0.8c0.3-0.3-0.3,0.4-0.4,0.6
	c-0.2,0.4-0.3,0.9-0.3,1.3c-0.1,0.7,0.1,1.5,0.4,2.2c-0.1-0.3,0.3,0.5,0.4,0.7c-0.1-0.2,0.3,0.4,0.6,0.6c-0.3-0.2,0.5,0.3,0.7,0.5
	c0.3,0.2,0.6,0.3,0.9,0.4c2,0.5,4,0.7,6,0.6c11.1-0.3,21.8-4.4,32.9-4.1c4,0.1,8.7,1.1,10.3,5.3c1.2,3.1,0.4,6.5-2,8.8
	c-2.6,2.6-5.1,3.8-7.6,6.3c-3.7,3.7-5.9,8.6-7.2,13.7c-2.3,9.9-1.5,20.4-1.6,30.5c0,6.4-0.1,12.9-0.2,19.3c0,2.8-4.4,2.8-4.3,0
	c0-1.7,0.1-3.5,0.1-5.2c0.1-10.4,0.1-20.8,0.2-31.1c0.1-7.7,1.1-15.7,4.5-22.7c2-4,4.9-7.5,8.5-10.2c0.8-0.6,1.5-1.2,2.3-1.7
	l0.5-0.4c0.3-0.3-0.2,0.2,0.1-0.1l0.8-0.6c0.5-0.4,1-0.9,1.4-1.4c0.2-0.3-0.2,0.3,0-0.1c0.1-0.1,0.2-0.3,0.3-0.4
	c0.1-0.1,0.1-0.2,0.2-0.4c0.2-0.4-0.1,0.4,0,0c0.1-0.2,0.2-0.9,0.2-0.7c0-0.3,0-0.5,0-0.8c0-0.5-0.2-1-0.4-1.5
	c-0.2-0.5-0.6-0.9-1-1.1c-0.6-0.4-1.3-0.7-2.1-0.8c-4.2-1-9.7,0-14.2,0.7c-5.8,0.9-11.7,2.1-17.6,2.7c-4.3,0.5-9.5,0.9-13.5-1.4
	c-3.5-2.1-5-6.3-3.7-10.1c1.4-3.8,5.4-5.7,9-6.9c10.2-3.2,21.3-2.8,31.8-4.3c4.3-0.6,8.9-1.4,12.3-3.5c1-0.6,1.7-1.5,2.1-2.6
	c0.2-0.6,0.1-0.1,0.1-0.8c0-0.4-0.1-1,0-1c-0.1-0.7-0.3-1.3-0.8-1.8c0,0-0.5-0.5-0.8-0.7c0.2,0.2-0.5-0.3-0.7-0.4
	c-0.8-0.4-1.6-0.7-2.5-0.8c-2.4-0.4-4.8-0.5-7.2-0.3c-6.3,0.5-12.6,1.6-18.8,3.2c-6.6,1.5-13.1,3.2-19.6,4.7
	c-5.8,1.3-11.8,2.6-17.8,1.8c-6.9-0.8-13.4-4.2-16.9-10.4c-1.2-2.2-2-4.6-2.4-7.1c-0.6-5.2-0.9-10.3-0.8-15.5H845.4z"/>
<rect x="841.1" class="st6" width="4.3" height="394.5"/>
<polyline class="st3" points="998.1,0 824.8,0 824.8,652.1 "/>
<g>
	<defs>
		<rect id="SVGID_1_" x="39.6" y="546.3" width="91.9" height="533.7"/>
	</defs>
	<clipPath id="SVGID_2_">
		<use xlink:href="#SVGID_1_"  style="overflow:visible;"/>
	</clipPath>
	<g class="st8">
		<path class="st6" d="M74.8,610.6c-0.3,1.6-0.8,4.1-1.1,5.1c-0.1,0.3-0.5,2.2-0.6,3c-0.5,2.1-0.5,3,0.2,3.5
			c1.8,1.1,1.9,2.7,1.3,4.3c-0.1,0.3-0.2,0.6-0.2,1c0.1,1,0.8,1.9,1.8,2.2c2,0.6,2.8,2,2.4,4.4c-0.9,5-4.6,6.9-8.3,8.8
			c-2.1,1.1-3.5,2-3.1,3.3c0.8,2.6,10.6,0.7,16-0.1c9.8-1.5,21.2-3,22.9,2.9c0.4,1.5,0.1,3.2-0.9,4.5c-2.4,2.7-7.1,2.8-12.5,3.6
			c-3.3,0.5-5.8,2.9-5.8,5.2V1080h-4.3V662.1c0-4.9,3.5-7.7,10-8.7c3.4-0.5,9.4-0.9,9.4-3.3c0-2.7-12.2-1.5-17.7-0.5
			c-9.8,1.9-19.4,3.3-21.2-2.3c-1.4-4.2,2.5-6.7,5.1-7.9c2.7-1.3,5.8-2.3,6.6-5.7c-2.3-0.8-3.2-1.6-3.9-2.9
			c-0.8-1.7-0.9-3.6-0.3-5.3c-3.2-2.1-1.7-6.7-1.4-7.9c0.1-0.3,0.3-1.2,0.3-1.4c0.2-0.7,0.7-3.2,1-4.5"/>
		<path class="st6" d="M76.5,591.1l4.8-26.8l-2.2-0.1c-1.2,0-2.3,0.8-2.5,2l-4.8,26.7l2.3,0.1C75.2,593.2,76.2,592.3,76.5,591.1"/>
		<path class="st6" d="M97.4,591.7l4.8-26.8l-2.2-0.1c-1.2,0-2.3,0.8-2.5,2l-4.8,26.7l2.3,0.1C96.1,593.7,97.2,592.9,97.4,591.7"/>
		<path class="st6" d="M95.5,601.3c-1.2,0-2.3,0.8-2.5,2l-0.9,4.8c-0.4,2.5-2.7,4.2-5.2,3.8c0,0-0.1,0-0.1,0c-1.8-0.5-3-2.3-2.6-4.1
			l0.3-1.7l0.8-4.6H83c-1.2,0-2.2,0.9-2.4,2l-0.4,2.5l-0.3,1.4c-0.9,4,1.7,7.9,5.7,8.8c0.5,0.1,1.1,0.2,1.6,0.2
			c1.1,0.1,2.2-0.1,3.3-0.5c0,0-1.3,5.5-2.2,9.9c-0.6,2.6-2.2,4.7-4.8,4.8c-1.2,0.1-2.1,1-2.3,2.1l-0.4,2.1c0.3,0,2.1,0.1,2.4,0.1
			c5.1,0.1,8.6-4,9.5-9.1l5.1-24.5L95.5,601.3z"/>
		<path class="st6" d="M84.9,578l-4,22.5h2.3c1.2,0,2.2-0.9,2.4-2l3.6-20.5H84.9z"/>
		<path class="st6" d="M82.3,576.6l15.6,0l-0.6,4.3l-17.8,0.1l0.4-2.3C80.1,577.5,81.2,576.6,82.3,576.6"/>
		<path class="st9" d="M39.9,605.4c1.4-0.5,2.5-1.7,3-3.1c0.1-0.2,0.3-0.4,0.6-0.3c0.1,0,0.2,0.1,0.3,0.3c0.5,1.5,1.6,2.6,3.1,3.2
			c0.3,0.1,0.4,0.3,0.4,0.5c0,0.2-0.2,0.3-0.4,0.4c-1.4,0.6-2.5,1.8-3,3.2c-0.1,0.3-0.3,0.4-0.5,0.4c-0.2,0-0.3-0.2-0.4-0.4
			c-0.5-1.5-1.6-2.7-3-3.4c-0.2-0.1-0.3-0.3-0.2-0.6C39.7,605.6,39.7,605.5,39.9,605.4"/>
		<path class="st9" d="M123,551.6c1.6-0.6,2.8-1.9,3.4-3.5c0.1-0.3,0.5-0.5,0.8-0.3c0.2,0.1,0.3,0.2,0.3,0.3c0.6,1.7,1.9,3,3.5,3.7
			c0.3,0.1,0.5,0.5,0.3,0.8c-0.1,0.2-0.2,0.3-0.3,0.3c-1.7,0.7-2.9,2.1-3.5,3.8c-0.1,0.3-0.5,0.5-0.8,0.4c-0.2-0.1-0.3-0.2-0.4-0.4
			c-0.6-1.7-1.8-3.1-3.5-3.9c-0.3-0.1-0.4-0.5-0.3-0.8C122.8,551.8,122.9,551.7,123,551.6"/>
		<path class="st9" d="M51.9,617.5c1.1-0.4,1.9-1.3,2.2-2.3c0.1-0.2,0.3-0.3,0.4-0.2c0.1,0,0.2,0.1,0.2,0.2c0.4,1.1,1.2,2,2.3,2.4
			c0.2,0.1,0.3,0.3,0.2,0.5c0,0.1-0.1,0.2-0.2,0.2c-1.1,0.4-1.9,1.3-2.3,2.5c-0.1,0.2-0.3,0.3-0.5,0.2c-0.1,0-0.2-0.1-0.2-0.2
			c-0.4-1.1-1.2-2.1-2.3-2.6c-0.2-0.1-0.3-0.3-0.2-0.4C51.7,617.6,51.8,617.6,51.9,617.5"/>
		<path class="st9" d="M74.2,613.6c0.2-0.7,0.5-2.4,0.6-3c0.1-0.6-0.2-1.1-0.7-1.3c-15.5-7.2-22.2-25.7-15-41.2
			c7.2-15.5,25.7-22.2,41.2-15c15.5,7.2,22.2,25.7,15,41.2c-3.2,6.8-8.7,12.2-15.5,15.2c-0.4,0.2-0.6,0.5-0.7,0.9l-0.8,3.9
			c18.3-6.1,28.1-25.8,22-44.1c-6.1-18.3-25.8-28.1-44.1-22c-18.3,6.1-28.1,25.8-22,44.1c2.8,8.3,8.5,15.2,16.1,19.4
			C71.6,612.3,73.1,613,74.2,613.6"/>
	</g>
</g>
</svg>
