<svg id="圖層_1" data-name="圖層 1" xmlns="http://www.w3.org/2000/svg" viewBox="0 0 150 150"><defs><style>.cls-1{fill:#f2a5bd;}.cls-2{fill:#e63e6e;}</style></defs><path class="cls-1" d="M61.72,79.5c-.4,1.93-1,5-1.31,6.35-.08.37-.58,2.72-.8,3.73-.58,2.65-.59,3.76.29,4.29,2.28,1.39,2.4,3.32,1.57,5.32a3.48,3.48,0,0,0-.26,1.19,3,3,0,0,0,2.18,2.72c2.49.75,3.54,2.45,3,5.48-1.11,6.16-5.73,8.56-10.25,10.84-2.59,1.3-4.34,2.47-3.86,4.1,1,3.27,13.15.88,19.79-.17,12.1-1.91,26.19-3.71,28.34,3.55a6,6,0,0,1-1.09,5.51c-2.93,3.39-8.79,3.48-15.46,4.46-4.12.6-7.16,3.53-7.16,6.4v4A2.68,2.68,0,0,1,74,150h0a2.68,2.68,0,0,1-2.68-2.68v-4c0-6.1,4.33-9.57,12.29-10.73,4.2-.62,11.63-1.08,11.63-4.12,0-3.39-15.16-1.89-21.9-.58-12.14,2.37-24,4.08-26.25-2.89-1.7-5.19,3.12-8.29,6.3-9.77,3.37-1.57,7.12-2.81,8.11-7.07-2.88-1-3.95-1.94-4.84-3.61a8.79,8.79,0,0,1-.4-6.58c-3.91-2.66-2.07-8.33-1.73-9.74.07-.33.33-1.5.38-1.73.19-.89.87-3.93,1.27-5.66"/><path class="cls-2" d="M63.75,55.47l5.88-33.1-2.79-.07a3,3,0,0,0-3.07,2.51l-5.88,33.1,2.79.07a3,3,0,0,0,3.07-2.51"/><path class="cls-2" d="M89.66,56.14l5.88-33.09L92.75,23a3,3,0,0,0-3.07,2.51L83.8,58.58l2.79.07a3,3,0,0,0,3.07-2.51"/><path class="cls-2" d="M87.27,68.05a3,3,0,0,0-3.07,2.51l-1,5.9a5.64,5.64,0,0,1-6.55,4.67,4.39,4.39,0,0,1-3.28-5.08l.36-2,1-5.69H71.81a3,3,0,0,0-3,2.51l-.54,3L68,75.6a9.13,9.13,0,0,0,9,11,10.11,10.11,0,0,0,4.07-.6S79.5,92.9,78.32,98.28c-.7,3.17-2.78,5.81-5.92,5.9a3.13,3.13,0,0,0-2.88,2.65L69,109.48c.38,0,2.56.12,2.94.13,6.35.17,10.67-4.93,11.75-11.18l6.33-30.31Z"/><path class="cls-2" d="M74.27,39.23l-5,27.85H72.2a3.05,3.05,0,0,0,3-2.51l4.5-25.34Z"/><path class="cls-2" d="M71.05,37.49l19.23-.06-.71,5.35-22,.07L68.06,40a3.06,3.06,0,0,1,3-2.53"/><path class="cls-2" d="M18.51,73.14a6.09,6.09,0,0,0,3.65-3.8.56.56,0,0,1,1.06,0A6.61,6.61,0,0,0,27,73.27a.57.57,0,0,1,0,1,6.41,6.41,0,0,0-3.73,4,.57.57,0,0,1-1.07,0,6.82,6.82,0,0,0-3.69-4.16.55.55,0,0,1,0-1"/><path class="cls-2" d="M121.38,6.57a7.43,7.43,0,0,0,4.23-4.38.75.75,0,0,1,1.42,0,8,8,0,0,0,4.37,4.56.76.76,0,0,1,0,1.4A7.78,7.78,0,0,0,127,12.8a.76.76,0,0,1-1.43,0A8.25,8.25,0,0,0,121.34,8a.75.75,0,0,1,0-1.39"/><path class="cls-2" d="M33.36,88.11a4.61,4.61,0,0,0,2.78-2.88.43.43,0,0,1,.8,0,5,5,0,0,0,2.85,3,.43.43,0,0,1,0,.8,4.88,4.88,0,0,0-2.83,3,.43.43,0,0,1-.81,0,5.16,5.16,0,0,0-2.8-3.16.42.42,0,0,1,0-.78"/><path class="cls-1" d="M61,83.24c.18-.91.61-3,.77-3.74a1.5,1.5,0,0,0-.86-1.66,38.36,38.36,0,1,1,31.78.31,1.51,1.51,0,0,0-.87,1.06l-1,4.78a43.12,43.12,0,1,0-34.58-3.2c1.6.88,3.42,1.73,4.76,2.45"/></svg>