<?xml version="1.0" encoding="utf-8"?>
<!-- Generator: Adobe Illustrator 24.1.1, SVG Export Plug-In . SVG Version: 6.00 Build 0)  -->
<svg version="1.1" id="圖層_1" xmlns="http://www.w3.org/2000/svg" xmlns:xlink="http://www.w3.org/1999/xlink" x="0px" y="0px"
	 viewBox="0 0 1920 1080" style="enable-background:new 0 0 1920 1080;" xml:space="preserve">
<style type="text/css">
	.st0{fill:#FFC5D8;}
	.st1{fill:none;stroke:#ECA29F;stroke-linecap:round;stroke-linejoin:round;}
	.st2{fill:none;stroke:#9FA0A0;stroke-linecap:round;stroke-linejoin:round;}
	.st3{fill:none;}
	.st4{fill:#EFEFEF;}
	.st5{fill:#DCDDDD;}
	.st6{fill:#595757;}
	.st7{fill:#3E3A39;}
	.st8{clip-path:url(#SVGID_2_);}
	.st9{fill:#E63E6E;}
</style>
<rect class="st0" width="1920" height="1080"/>
<line class="st1" x1="355.2" y1="925.7" x2="0" y2="925.7"/>
<line class="st2" x1="527.4" y1="190.3" x2="0" y2="190.3"/>
<image style="overflow:visible;enable-background:new    ;" width="438" height="532" xlink:href="A00D2237.png"  transform="matrix(0.4408 0 0 0.4408 514.4389 476.81)">
</image>
<polyline class="st3" points="705.5,476.8 514.4,476.8 514.4,708.9 "/>
<polyline class="st3" points="705.5,476.8 514.4,476.8 514.4,708.9 "/>
<path class="st4" d="M631.7,641.3h-47.4c-3.4,0-6.2-2.8-6.2-6.2v-88.5c0-3.4,2.8-6.2,6.2-6.2h47.4c3.4,0,6.2,2.8,6.2,6.2v88.5
	C637.8,638.6,635.1,641.3,631.7,641.3"/>
<path class="st5" d="M607.9,595.3c7.8,0,14.1,6.3,14.1,14.1s-6.3,14.1-14.1,14.1s-14.1-6.3-14.1-14.1c0,0,0,0,0,0
	C593.8,601.6,600.1,595.3,607.9,595.3 M607.9,594.8c-8.1,0-14.6,6.6-14.6,14.6s6.6,14.6,14.6,14.6c8.1,0,14.6-6.6,14.6-14.6
	C622.5,601.3,616,594.8,607.9,594.8L607.9,594.8"/>
<path class="st6" d="M601.5,602.3h0.8c0.5,0,0.9,0.4,0.9,0.9v6.2c0,0.5-0.4,0.9-0.9,0.9h-0.8c-0.5,0-0.9-0.4-0.9-0.9v-6.2
	C600.6,602.7,601,602.3,601.5,602.3z"/>
<path class="st5" d="M602.3,602.5c0.4,0,0.7,0.3,0.7,0.7v6.2c0,0.4-0.3,0.7-0.7,0.7h-0.8c-0.4,0-0.7-0.3-0.7-0.7v-6.2
	c0-0.4,0.3-0.7,0.7-0.7H602.3 M602.3,602.1h-0.8c-0.6,0-1.1,0.5-1.1,1.1v6.2c0,0.6,0.5,1.1,1.1,1.1h0.8c0.6,0,1.1-0.5,1.1-1.1v-6.2
	C603.4,602.6,602.9,602.1,602.3,602.1"/>
<path class="st6" d="M613.5,602.3h0.8c0.5,0,0.9,0.4,0.9,0.9v6.2c0,0.5-0.4,0.9-0.9,0.9h-0.8c-0.5,0-0.9-0.4-0.9-0.9v-6.2
	C612.6,602.7,613,602.3,613.5,602.3z"/>
<path class="st5" d="M614.4,602.5c0.4,0,0.7,0.3,0.7,0.7v6.2c0,0.4-0.3,0.7-0.7,0.7h-0.8c-0.4,0-0.7-0.3-0.7-0.7v-6.2
	c0-0.4,0.3-0.7,0.7-0.7H614.4 M614.4,602.1h-0.8c-0.6,0-1.1,0.5-1.1,1.1v6.2c0,0.6,0.5,1.1,1.1,1.1h0.8c0.6,0,1.1-0.5,1.1-1.1v-6.2
	C615.5,602.6,615,602.1,614.4,602.1"/>
<path class="st6" d="M607.9,619.4c-3.1,0-3.1-2.4-3.1-2.4v-3.5h6.4v3.4C611.2,617,611.2,619.4,607.9,619.4"/>
<path class="st5" d="M610.9,613.8v3.2c0,0,0,2.2-3.1,2.2c-2.9,0-2.9-2.2-2.9-2.2v-3.2L610.9,613.8 M611.5,613.3h-6.9v3.7
	c0,0,0,2.6,3.4,2.6c3.5,0,3.5-2.6,3.5-2.6V613.3z"/>
<path class="st7" d="M622.6,573c0,8.1-6.6,14.6-14.7,14.6s-14.6-6.6-14.6-14.7s6.6-14.6,14.7-14.6c0,0,0,0,0,0
	C616.1,558.4,622.6,564.9,622.6,573"/>
<path class="st6" d="M616.3,573c0,4.6-3.7,8.3-8.3,8.3s-8.3-3.7-8.3-8.3s3.7-8.3,8.3-8.3c0,0,0,0,0,0
	C612.5,564.7,616.3,568.4,616.3,573"/>
<path class="st6" d="M537.2,424.8c0,5.5,0,11.1,0.8,16.5c0.9,5.7,4.6,10.6,9.8,13.1c6.5,3.1,13.9,2.4,20.6,1.1
	c14.4-2.9,28.4-7.4,42.9-9.3c5.4-0.7,11.7-1.4,16.9,0.7c4.5,1.8,7.2,6,6.3,10.9c-0.8,4.3-4.9,6.7-8.7,8.1
	c-5.1,1.9-10.7,2.5-16.1,3.1c-6.2,0.7-12.4,1.1-18.6,1.9c-4.7,0.6-10.3,1.4-14.3,3.4c-0.5,0.2-0.9,0.5-1.4,0.8
	c-0.3,0.1-0.5,0.3-0.7,0.5c-0.3,0.3-0.6,0.6-0.9,0.9c0.3-0.4-0.3,0.5-0.4,0.7c-0.2,0.5-0.3,1-0.3,1.5c-0.1,0.8,0.1,1.6,0.4,2.4
	c-0.1-0.3,0.3,0.6,0.5,0.8c-0.1-0.2,0.4,0.4,0.7,0.6c-0.3-0.2,0.6,0.4,0.8,0.5c0.3,0.2,0.6,0.3,1,0.4c2.2,0.6,4.4,0.8,6.6,0.7
	c12.2-0.3,24.1-4.8,36.3-4.5c4.4,0.1,9.6,1.3,11.3,5.9c1.3,3.4,0.4,7.2-2.2,9.7c-2.8,2.8-5.6,4.2-8.4,6.9c-4.1,4.1-6.5,9.5-7.9,15.1
	c-2.6,10.9-1.7,22.5-1.7,33.6c-0.1,7.1-0.1,14.2-0.3,21.3c-0.1,3.1-4.8,3.1-4.8,0l0.1-5.8c0.2-11.4,0.1-22.9,0.3-34.3
	c0.1-8.5,1.2-17.3,5-25.1c2.2-4.4,5.4-8.2,9.4-11.2c0.8-0.6,1.7-1.3,2.5-1.9l0.5-0.4c0.4-0.3-0.2,0.2,0.1-0.1l0.8-0.7
	c0.6-0.5,1.1-1,1.5-1.5c0.3-0.3-0.2,0.4,0-0.1l0.3-0.5c0.1-0.1,0.1-0.3,0.2-0.4c0.2-0.4-0.1,0.4,0,0c0.1-0.2,0.3-1,0.2-0.8
	c0-0.3,0-0.6,0-0.9c0-0.6-0.2-1.1-0.4-1.6c-0.2-0.5-0.6-1-1.2-1.2c-0.7-0.4-1.5-0.7-2.3-0.9c-4.6-1.1-10.7,0-15.6,0.8
	c-6.4,1-12.8,2.3-19.3,3c-4.8,0.5-10.5,0.9-14.9-1.5c-3.8-2.3-5.5-6.9-4.1-11.1c1.5-4.2,5.9-6.3,9.9-7.6c11.3-3.5,23.5-3.1,35.1-4.7
	c4.7-0.7,9.8-1.5,13.6-3.9c1.1-0.6,1.9-1.7,2.3-2.9c0.2-0.6,0.1-0.1,0.1-0.9c0-0.4-0.1-1.1-0.1-1.1c-0.1-0.7-0.4-1.4-0.8-2
	c0,0-0.6-0.6-0.8-0.8c0.3,0.2-0.6-0.4-0.8-0.5c-0.9-0.4-1.8-0.7-2.7-0.9c-2.6-0.5-5.3-0.6-7.9-0.3c-7,0.6-14,1.7-20.8,3.5
	c-7.2,1.7-14.4,3.6-21.7,5.2c-6.5,1.5-13,2.8-19.6,2c-7.6-0.9-14.8-4.6-18.6-11.5c-1.4-2.4-2.3-5.1-2.7-7.8
	c-0.7-5.7-1-11.4-0.9-17.1L537.2,424.8z"/>
<rect x="532.4" y="-10.3" class="st6" width="4.8" height="435"/>
<polyline class="st3" points="705.5,-10.3 514.4,-10.3 514.4,708.9 "/>
<g>
	<defs>
		<rect id="SVGID_1_" x="314" y="501.7" width="101.4" height="588.6"/>
	</defs>
	<clipPath id="SVGID_2_">
		<use xlink:href="#SVGID_1_"  style="overflow:visible;"/>
	</clipPath>
	<g class="st8">
		<path class="st6" d="M352.8,572.5c-0.4,1.7-0.9,4.5-1.2,5.7c-0.1,0.3-0.5,2.4-0.7,3.3c-0.5,2.4-0.5,3.4,0.3,3.8
			c2,1.2,2.1,3,1.4,4.7c-0.1,0.3-0.2,0.7-0.2,1.1c0.1,1.1,0.9,2.1,2,2.4c2.2,0.7,3.1,2.2,2.7,4.9c-1,5.5-5.1,7.6-9.1,9.7
			c-2.3,1.2-3.9,2.2-3.4,3.7c0.9,2.9,11.7,0.8,17.6-0.2c10.8-1.7,23.4-3.3,25.3,3.2c0.5,1.7,0.1,3.5-1,4.9c-2.6,3-7.8,3.1-13.8,4
			c-3.7,0.5-6.4,3.2-6.4,5.7v460.9h-4.8V629.4c0-5.4,3.9-8.5,11-9.6c3.8-0.5,10.4-1,10.4-3.7c0-3-13.5-1.7-19.5-0.5
			c-10.8,2.1-21.4,3.6-23.4-2.6c-1.5-4.6,2.8-7.4,5.6-8.7c3-1.4,6.4-2.5,7.2-6.3c-2.6-0.8-3.5-1.7-4.3-3.2c-0.9-1.8-1-3.9-0.3-5.8
			c-3.5-2.4-1.8-7.4-1.5-8.7c0.1-0.3,0.3-1.3,0.3-1.5c0.2-0.8,0.8-3.5,1.1-5"/>
		<path class="st6" d="M354.6,551.1l5.3-29.5l-2.5-0.1c-1.3,0-2.5,0.9-2.7,2.2l-5.2,29.5l2.5,0.1
			C353.3,553.4,354.4,552.5,354.6,551.1"/>
		<path class="st6" d="M377.8,551.7l5.3-29.5l-2.5-0.1c-1.3,0-2.5,0.9-2.7,2.2l-5.2,29.5l2.5,0.1C376.3,554,377.5,553.1,377.8,551.7
			"/>
		<path class="st6" d="M375.6,562.3c-1.3,0-2.5,0.9-2.7,2.2l-0.9,5.3c-0.4,2.7-3,4.6-5.7,4.2c0,0-0.1,0-0.1,0
			c-2-0.5-3.3-2.5-2.9-4.5l0.3-1.8l0.9-5.1h-2.6c-1.3,0-2.4,0.9-2.7,2.2l-0.5,2.7l-0.3,1.5c-0.9,4.4,1.9,8.7,6.3,9.7
			c0.6,0.1,1.2,0.2,1.8,0.2c1.2,0.1,2.5-0.1,3.6-0.5c0,0-1.4,6.1-2.5,10.9c-0.6,2.8-2.5,5.2-5.3,5.3c-1.3,0.1-2.4,1.1-2.6,2.4
			l-0.4,2.4c0.3,0,2.3,0.1,2.6,0.1c5.7,0.1,9.5-4.4,10.5-10l5.6-27L375.6,562.3z"/>
		<path class="st6" d="M364,536.7l-4.4,24.8h2.6c1.3,0,2.4-0.9,2.7-2.2l4-22.6H364z"/>
		<path class="st6" d="M361.2,535.1l17.1,0l-0.6,4.8l-19.6,0.1l0.4-2.5C358.7,536.1,359.8,535.1,361.2,535.1"/>
		<path class="st9" d="M314.3,566.9c1.5-0.6,2.7-1.8,3.3-3.4c0.1-0.3,0.4-0.4,0.6-0.3c0.1,0.1,0.2,0.2,0.3,0.3
			c0.6,1.6,1.8,2.9,3.4,3.5c0.3,0.1,0.4,0.4,0.4,0.6c0,0.2-0.2,0.3-0.4,0.4c-1.6,0.6-2.8,1.9-3.3,3.6c-0.1,0.3-0.3,0.5-0.6,0.4
			c-0.2,0-0.4-0.2-0.4-0.4c-0.5-1.7-1.7-3-3.3-3.7c-0.3-0.1-0.4-0.4-0.3-0.6C314,567.1,314.1,567,314.3,566.9"/>
		<path class="st9" d="M406,507.5c1.8-0.7,3.1-2.1,3.8-3.9c0.1-0.4,0.5-0.5,0.9-0.4c0.2,0.1,0.3,0.2,0.4,0.4
			c0.7,1.8,2.1,3.3,3.9,4.1c0.3,0.1,0.5,0.5,0.4,0.9c-0.1,0.2-0.2,0.3-0.4,0.4c-1.8,0.8-3.2,2.3-3.9,4.2c-0.1,0.4-0.5,0.5-0.9,0.4
			c-0.2-0.1-0.3-0.2-0.4-0.4c-0.6-1.9-2-3.5-3.8-4.3c-0.3-0.1-0.5-0.5-0.4-0.9C405.7,507.7,405.8,507.6,406,507.5"/>
		<path class="st9" d="M327.6,580.2c1.2-0.4,2.1-1.4,2.5-2.6c0.1-0.2,0.3-0.3,0.5-0.2c0.1,0,0.2,0.1,0.2,0.2
			c0.4,1.2,1.3,2.2,2.5,2.7c0.2,0.1,0.3,0.3,0.2,0.5c0,0.1-0.1,0.2-0.2,0.2c-1.2,0.5-2.1,1.5-2.5,2.7c-0.1,0.2-0.3,0.3-0.5,0.2
			c-0.1,0-0.2-0.1-0.2-0.2c-0.4-1.3-1.3-2.3-2.5-2.8c-0.2-0.1-0.3-0.3-0.2-0.5C327.4,580.4,327.5,580.3,327.6,580.2"/>
		<path class="st9" d="M352.1,575.9c0.2-0.8,0.5-2.7,0.7-3.3c0.1-0.6-0.2-1.2-0.8-1.5c-17.1-8-24.5-28.3-16.5-45.4
			c8-17.1,28.3-24.5,45.4-16.5c17.1,8,24.5,28.3,16.5,45.4c-3.5,7.5-9.6,13.4-17.1,16.8c-0.4,0.2-0.7,0.5-0.8,1l-0.9,4.3
			c20.1-6.7,31-28.5,24.3-48.6c-6.7-20.1-28.5-31-48.6-24.3c-20.1,6.7-31,28.5-24.3,48.6c3,9.1,9.4,16.8,17.8,21.4
			C349.3,574.5,351,575.2,352.1,575.9"/>
	</g>
</g>
</svg>
