<?xml version="1.0" encoding="utf-8"?>
<!-- Generator: Adobe Illustrator 24.1.1, SVG Export Plug-In . SVG Version: 6.00 Build 0)  -->
<svg version="1.1" id="圖層_1" xmlns="http://www.w3.org/2000/svg" xmlns:xlink="http://www.w3.org/1999/xlink" x="0px" y="0px"
	 viewBox="0 0 150 150" style="enable-background:new 0 0 150 150;" xml:space="preserve">
<style type="text/css">
	.st0{fill:#FFFFFF;}
	.st1{fill:#E63E6E;}
</style>
<path class="st0" d="M61.7,79.5c-0.4,1.9-1,5-1.3,6.3c-0.1,0.4-0.6,2.7-0.8,3.7c-0.6,2.7-0.6,3.8,0.3,4.3c2.3,1.4,2.4,3.3,1.6,5.3
	c-0.2,0.4-0.2,0.8-0.3,1.2c0.1,1.3,0.9,2.4,2.2,2.7c2.5,0.8,3.5,2.4,3,5.5c-1.1,6.2-5.7,8.6-10.3,10.8c-2.6,1.3-4.3,2.5-3.9,4.1
	c1,3.3,13.2,0.9,19.8-0.2c12.1-1.9,26.2-3.7,28.3,3.6c0.6,1.9,0.2,4-1.1,5.5c-2.9,3.4-8.8,3.5-15.5,4.5c-4.1,0.6-7.2,3.5-7.2,6.4v4
	c0,1.5-1.1,2.7-2.6,2.7c0,0,0,0-0.1,0l0,0c-1.5,0-2.7-1.2-2.7-2.7v-4c0-6.1,4.3-9.6,12.3-10.7c4.2-0.6,11.6-1.1,11.6-4.1
	c0-3.4-15.2-1.9-21.9-0.6c-12.1,2.4-24,4.1-26.3-2.9c-1.7-5.2,3.1-8.3,6.3-9.8c3.4-1.6,7.1-2.8,8.1-7.1c-2.9-1-4-1.9-4.8-3.6
	c-1-2.1-1.1-4.4-0.4-6.6c-3.9-2.7-2.1-8.3-1.7-9.7c0.1-0.3,0.3-1.5,0.4-1.7c0.2-0.9,0.9-3.9,1.3-5.7"/>
<path class="st1" d="M63.8,55.5l5.9-33.1l-2.8-0.1c-1.5-0.1-2.8,1-3.1,2.5l-5.9,33.1l2.8,0.1C62.2,58,63.5,57,63.8,55.5"/>
<path class="st1" d="M89.7,56.1L95.5,23h-2.8c-1.5-0.1-2.8,1-3.1,2.5l-5.9,33.1l2.8,0.1C88.1,58.7,89.4,57.6,89.7,56.1"/>
<path class="st1" d="M87.3,68.1c-1.5-0.1-2.8,1-3.1,2.5l-1,5.9c-0.5,3.1-3.4,5.2-6.5,4.7h-0.1c-2.3-0.6-3.7-2.8-3.3-5.1l0.4-2l1-5.7
	h-2.9c-1.5,0-2.8,1-3,2.5l-0.5,3L68,75.6c-1,4.9,2.1,9.8,7.1,10.8c0.6,0.1,1.3,0.2,1.9,0.2c1.4,0.1,2.8-0.1,4.1-0.6
	c0,0-1.6,6.9-2.8,12.3c-0.7,3.2-2.8,5.8-5.9,5.9c-1.5,0.1-2.7,1.2-2.9,2.7l-0.5,2.7c0.4,0,2.6,0.1,2.9,0.1
	c6.3,0.2,10.7-4.9,11.8-11.2L90,68.1H87.3z"/>
<path class="st1" d="M74.3,39.2l-5,27.9h2.9c1.5,0,2.7-1.1,3-2.5l4.5-25.3L74.3,39.2L74.3,39.2z"/>
<path class="st1" d="M71.1,37.5l19.2-0.1l-0.7,5.3l-22,0.1l0.5-2.8C68.3,38.5,69.6,37.5,71.1,37.5"/>
<path class="st1" d="M18.5,73.1c1.7-0.6,3.1-2,3.6-3.8c0.1-0.3,0.4-0.4,0.7-0.3c0.2,0.1,0.3,0.2,0.3,0.3c0.6,1.8,2,3.2,3.8,3.9
	c0.3,0.2,0.4,0.5,0.2,0.8c-0.1,0.1-0.1,0.2-0.2,0.2c-1.8,0.7-3.1,2.2-3.7,4c-0.1,0.3-0.4,0.4-0.7,0.3c-0.2-0.1-0.3-0.2-0.3-0.3
	c-0.6-1.8-1.9-3.4-3.7-4.2c-0.3-0.1-0.4-0.5-0.3-0.7C18.3,73.3,18.4,73.2,18.5,73.1"/>
<path class="st1" d="M121.4,6.6c2-0.8,3.5-2.4,4.2-4.4c0.1-0.4,0.6-0.6,1-0.5c0.2,0.1,0.4,0.2,0.5,0.5c0.8,2.1,2.3,3.7,4.4,4.6
	c0.4,0.2,0.6,0.6,0.4,1c-0.1,0.2-0.2,0.3-0.4,0.4c-2.1,0.8-3.7,2.5-4.4,4.7c-0.1,0.4-0.6,0.6-1,0.5c-0.2-0.1-0.4-0.2-0.5-0.5
	c-0.7-2.1-2.2-3.8-4.2-4.8c-0.4-0.2-0.6-0.6-0.4-1C121,6.8,121.2,6.7,121.4,6.6"/>
<path class="st1" d="M33.4,88.1c1.3-0.5,2.3-1.5,2.8-2.9c0.1-0.2,0.3-0.3,0.6-0.2c0.1,0,0.2,0.1,0.2,0.2c0.5,1.4,1.5,2.5,2.8,3
	c0.2,0.1,0.3,0.3,0.2,0.6c0,0.1-0.1,0.2-0.2,0.2c-1.3,0.5-2.4,1.6-2.8,3c-0.1,0.2-0.3,0.3-0.5,0.3c-0.1,0-0.2-0.1-0.3-0.3
	c-0.4-1.4-1.5-2.6-2.8-3.2c-0.2-0.1-0.3-0.3-0.2-0.5C33.2,88.2,33.2,88.1,33.4,88.1"/>
<path class="st0" d="M61,83.2c0.2-0.9,0.6-3,0.8-3.7c0.1-0.7-0.2-1.4-0.9-1.7c-19.2-9-27.5-31.8-18.5-51s31.8-27.5,51-18.5
	s27.5,31.8,18.5,51c-3.9,8.4-10.7,15.1-19.2,18.8c-0.4,0.2-0.8,0.6-0.9,1.1l-1,4.8c22.6-7.5,34.8-32,27.2-54.6
	C110.5,6.8,86-5.4,63.4,2.2s-34.8,32-27.2,54.6c3.4,10.2,10.5,18.8,20,24C57.8,81.7,59.7,82.5,61,83.2"/>
</svg>
